# MagicaVoxel @ Ephtracy

# group
o 

# material
mtllib Heart Pickup.mtl
usemtl palette

# normals
vn -1 0 0
vn 1 0 0
vn 0 0 1
vn 0 0 -1
vn 0 -1 0
vn 0 1 0

# texcoords
vt 0.970703 0.5
vt 0.974609 0.5

# verts
v -0.7 0.6 0.3
v -0.7 0.6 0.1
v -0.7 1.1 0.3
v -0.7 1.1 0.1
v -0.6 0.5 0.3
v -0.6 0.5 0.1
v -0.6 0.6 0.3
v -0.6 0.6 0.1
v -0.6 0.7 0.4
v -0.6 0.7 0.3
v -0.6 0.7 0.1
v -0.6 0.7 0
v -0.6 1 0.4
v -0.6 1 0.3
v -0.6 1 0.1
v -0.6 1 0
v -0.6 1.1 0.3
v -0.6 1.1 0.1
v -0.6 1.2 0.3
v -0.6 1.2 0.1
v -0.5 0.4 0.3
v -0.5 0.4 0.1
v -0.5 0.5 0.3
v -0.5 0.5 0.1
v -0.5 0.6 0.4
v -0.5 0.6 0.3
v -0.5 0.6 0.1
v -0.5 0.6 0
v -0.5 0.7 0.4
v -0.5 0.7 0.3
v -0.5 0.7 0.1
v -0.5 0.7 0
v -0.5 1 0.4
v -0.5 1 0.3
v -0.5 1 0.1
v -0.5 1 0
v -0.5 1.1 0.4
v -0.5 1.1 0.3
v -0.5 1.1 0.1
v -0.5 1.1 0
v -0.5 1.2 0.3
v -0.5 1.2 0.1
v -0.5 1.3 0.3
v -0.5 1.3 0.1
v -0.4 0.3 0.3
v -0.4 0.3 0.1
v -0.4 0.4 0.3
v -0.4 0.4 0.1
v -0.4 0.5 0.4
v -0.4 0.5 0.3
v -0.4 0.5 0.1
v -0.4 0.5 0
v -0.4 0.6 0.4
v -0.4 0.6 0.3
v -0.4 0.6 0.1
v -0.4 0.6 0
v -0.4 1.1 0.4
v -0.4 1.1 0.3
v -0.4 1.1 0.1
v -0.4 1.1 0
v -0.4 1.2 0.4
v -0.4 1.2 0.3
v -0.4 1.2 0.1
v -0.4 1.2 0
v -0.3 0.2 0.3
v -0.3 0.2 0.1
v -0.3 0.3 0.3
v -0.3 0.3 0.1
v -0.3 0.4 0.4
v -0.3 0.4 0.3
v -0.3 0.4 0.1
v -0.3 0.4 0
v -0.3 0.5 0.4
v -0.3 0.5 0.3
v -0.3 0.5 0.1
v -0.3 0.5 0
v -0.2 0.1 0.3
v -0.2 0.1 0.1
v -0.2 0.2 0.3
v -0.2 0.2 0.1
v -0.2 0.3 0.4
v -0.2 0.3 0.3
v -0.2 0.3 0.1
v -0.2 0.3 0
v -0.2 0.4 0.4
v -0.2 0.4 0.3
v -0.2 0.4 0.1
v -0.2 0.4 0
v -0.1 0 0.3
v -0.1 0 0.1
v -0.1 0.1 0.3
v -0.1 0.1 0.1
v -0.1 0.2 0.4
v -0.1 0.2 0.3
v -0.1 0.2 0.1
v -0.1 0.2 0
v -0.1 0.3 0.4
v -0.1 0.3 0.3
v -0.1 0.3 0.1
v -0.1 0.3 0
v 0.1 1 0.4
v 0.1 1 0.3
v 0.1 1 0.1
v 0.1 1 0
v 0.1 1.1 0.4
v 0.1 1.1 0.3
v 0.1 1.1 0.1
v 0.1 1.1 0
v 0.1 1.2 0.3
v 0.1 1.2 0.1
v 0.1 1.3 0.3
v 0.1 1.3 0.1
v 0.2 1.1 0.4
v 0.2 1.1 0.3
v 0.2 1.1 0.1
v 0.2 1.1 0
v 0.2 1.2 0.4
v 0.2 1.2 0.3
v 0.2 1.2 0.1
v 0.2 1.2 0
v -0.2 1.1 0.4
v -0.2 1.1 0.3
v -0.2 1.1 0.1
v -0.2 1.1 0
v -0.2 1.2 0.4
v -0.2 1.2 0.3
v -0.2 1.2 0.1
v -0.2 1.2 0
v -0.1 1 0.4
v -0.1 1 0.3
v -0.1 1 0.1
v -0.1 1 0
v -0.1 1.1 0.4
v -0.1 1.1 0.3
v -0.1 1.1 0.1
v -0.1 1.1 0
v -0.1 1.2 0.3
v -0.1 1.2 0.1
v -0.1 1.3 0.3
v -0.1 1.3 0.1
v 0.1 0 0.3
v 0.1 0 0.1
v 0.1 0.1 0.3
v 0.1 0.1 0.1
v 0.1 0.2 0.4
v 0.1 0.2 0.3
v 0.1 0.2 0.1
v 0.1 0.2 0
v 0.1 0.3 0.4
v 0.1 0.3 0.3
v 0.1 0.3 0.1
v 0.1 0.3 0
v 0.2 0.1 0.3
v 0.2 0.1 0.1
v 0.2 0.2 0.3
v 0.2 0.2 0.1
v 0.2 0.3 0.4
v 0.2 0.3 0.3
v 0.2 0.3 0.1
v 0.2 0.3 0
v 0.2 0.4 0.4
v 0.2 0.4 0.3
v 0.2 0.4 0.1
v 0.2 0.4 0
v 0.3 0.2 0.3
v 0.3 0.2 0.1
v 0.3 0.3 0.3
v 0.3 0.3 0.1
v 0.3 0.4 0.4
v 0.3 0.4 0.3
v 0.3 0.4 0.1
v 0.3 0.4 0
v 0.3 0.5 0.4
v 0.3 0.5 0.3
v 0.3 0.5 0.1
v 0.3 0.5 0
v 0.4 0.3 0.3
v 0.4 0.3 0.1
v 0.4 0.4 0.3
v 0.4 0.4 0.1
v 0.4 0.5 0.4
v 0.4 0.5 0.3
v 0.4 0.5 0.1
v 0.4 0.5 0
v 0.4 0.6 0.4
v 0.4 0.6 0.3
v 0.4 0.6 0.1
v 0.4 0.6 0
v 0.4 1.1 0.4
v 0.4 1.1 0.3
v 0.4 1.1 0.1
v 0.4 1.1 0
v 0.4 1.2 0.4
v 0.4 1.2 0.3
v 0.4 1.2 0.1
v 0.4 1.2 0
v 0.5 0.4 0.3
v 0.5 0.4 0.1
v 0.5 0.5 0.3
v 0.5 0.5 0.1
v 0.5 0.6 0.4
v 0.5 0.6 0.3
v 0.5 0.6 0.1
v 0.5 0.6 0
v 0.5 0.7 0.4
v 0.5 0.7 0.3
v 0.5 0.7 0.1
v 0.5 0.7 0
v 0.5 1 0.4
v 0.5 1 0.3
v 0.5 1 0.1
v 0.5 1 0
v 0.5 1.1 0.4
v 0.5 1.1 0.3
v 0.5 1.1 0.1
v 0.5 1.1 0
v 0.5 1.2 0.3
v 0.5 1.2 0.1
v 0.5 1.3 0.3
v 0.5 1.3 0.1
v 0.6 0.5 0.3
v 0.6 0.5 0.1
v 0.6 0.6 0.3
v 0.6 0.6 0.1
v 0.6 0.7 0.4
v 0.6 0.7 0.3
v 0.6 0.7 0.1
v 0.6 0.7 0
v 0.6 1 0.4
v 0.6 1 0.3
v 0.6 1 0.1
v 0.6 1 0
v 0.6 1.1 0.3
v 0.6 1.1 0.1
v 0.6 1.2 0.3
v 0.6 1.2 0.1
v 0.7 0.6 0.3
v 0.7 0.6 0.1
v 0.7 1.1 0.3
v 0.7 1.1 0.1
v -0.6 0.7 0.4
v -0.6 1 0.4
v -0.5 0.6 0.4
v -0.5 0.7 0.4
v -0.5 1 0.4
v -0.5 1.1 0.4
v -0.4 0.5 0.4
v -0.4 0.6 0.4
v -0.4 1.1 0.4
v -0.4 1.2 0.4
v -0.3 0.4 0.4
v -0.3 0.5 0.4
v -0.2 0.3 0.4
v -0.2 0.4 0.4
v -0.2 1.1 0.4
v -0.2 1.2 0.4
v -0.1 0.2 0.4
v -0.1 0.3 0.4
v -0.1 1 0.4
v -0.1 1.1 0.4
v 0.1 0.2 0.4
v 0.1 0.3 0.4
v 0.1 1 0.4
v 0.1 1.1 0.4
v 0.2 0.3 0.4
v 0.2 0.4 0.4
v 0.2 1.1 0.4
v 0.2 1.2 0.4
v 0.3 0.4 0.4
v 0.3 0.5 0.4
v 0.4 0.5 0.4
v 0.4 0.6 0.4
v 0.4 1.1 0.4
v 0.4 1.2 0.4
v 0.5 0.6 0.4
v 0.5 0.7 0.4
v 0.5 1 0.4
v 0.5 1.1 0.4
v 0.6 0.7 0.4
v 0.6 1 0.4
v -0.7 0.6 0.3
v -0.7 1.1 0.3
v -0.6 0.5 0.3
v -0.6 0.6 0.3
v -0.6 0.7 0.3
v -0.6 1 0.3
v -0.6 1.1 0.3
v -0.6 1.2 0.3
v -0.5 0.4 0.3
v -0.5 0.5 0.3
v -0.5 0.6 0.3
v -0.5 0.7 0.3
v -0.5 1 0.3
v -0.5 1.1 0.3
v -0.5 1.2 0.3
v -0.5 1.3 0.3
v -0.4 0.3 0.3
v -0.4 0.4 0.3
v -0.4 0.5 0.3
v -0.4 0.6 0.3
v -0.4 1.1 0.3
v -0.4 1.2 0.3
v -0.3 0.2 0.3
v -0.3 0.3 0.3
v -0.3 0.4 0.3
v -0.3 0.5 0.3
v -0.2 0.1 0.3
v -0.2 0.2 0.3
v -0.2 0.3 0.3
v -0.2 0.4 0.3
v -0.2 1.1 0.3
v -0.2 1.2 0.3
v -0.1 0 0.3
v -0.1 0.1 0.3
v -0.1 0.2 0.3
v -0.1 0.3 0.3
v -0.1 1 0.3
v -0.1 1.1 0.3
v -0.1 1.2 0.3
v -0.1 1.3 0.3
v 0.1 0 0.3
v 0.1 0.1 0.3
v 0.1 0.2 0.3
v 0.1 0.3 0.3
v 0.1 1 0.3
v 0.1 1.1 0.3
v 0.1 1.2 0.3
v 0.1 1.3 0.3
v 0.2 0.1 0.3
v 0.2 0.2 0.3
v 0.2 0.3 0.3
v 0.2 0.4 0.3
v 0.2 1.1 0.3
v 0.2 1.2 0.3
v 0.3 0.2 0.3
v 0.3 0.3 0.3
v 0.3 0.4 0.3
v 0.3 0.5 0.3
v 0.4 0.3 0.3
v 0.4 0.4 0.3
v 0.4 0.5 0.3
v 0.4 0.6 0.3
v 0.4 1.1 0.3
v 0.4 1.2 0.3
v 0.5 0.4 0.3
v 0.5 0.5 0.3
v 0.5 0.6 0.3
v 0.5 0.7 0.3
v 0.5 1 0.3
v 0.5 1.1 0.3
v 0.5 1.2 0.3
v 0.5 1.3 0.3
v 0.6 0.5 0.3
v 0.6 0.6 0.3
v 0.6 0.7 0.3
v 0.6 1 0.3
v 0.6 1.1 0.3
v 0.6 1.2 0.3
v 0.7 0.6 0.3
v 0.7 1.1 0.3
v -0.7 0.6 0.1
v -0.7 1.1 0.1
v -0.6 0.5 0.1
v -0.6 0.6 0.1
v -0.6 0.7 0.1
v -0.6 1 0.1
v -0.6 1.1 0.1
v -0.6 1.2 0.1
v -0.5 0.4 0.1
v -0.5 0.5 0.1
v -0.5 0.6 0.1
v -0.5 0.7 0.1
v -0.5 1 0.1
v -0.5 1.1 0.1
v -0.5 1.2 0.1
v -0.5 1.3 0.1
v -0.4 0.3 0.1
v -0.4 0.4 0.1
v -0.4 0.5 0.1
v -0.4 0.6 0.1
v -0.4 1.1 0.1
v -0.4 1.2 0.1
v -0.3 0.2 0.1
v -0.3 0.3 0.1
v -0.3 0.4 0.1
v -0.3 0.5 0.1
v -0.2 0.1 0.1
v -0.2 0.2 0.1
v -0.2 0.3 0.1
v -0.2 0.4 0.1
v -0.2 1.1 0.1
v -0.2 1.2 0.1
v -0.1 0 0.1
v -0.1 0.1 0.1
v -0.1 0.2 0.1
v -0.1 0.3 0.1
v -0.1 1 0.1
v -0.1 1.1 0.1
v -0.1 1.2 0.1
v -0.1 1.3 0.1
v 0.1 0 0.1
v 0.1 0.1 0.1
v 0.1 0.2 0.1
v 0.1 0.3 0.1
v 0.1 1 0.1
v 0.1 1.1 0.1
v 0.1 1.2 0.1
v 0.1 1.3 0.1
v 0.2 0.1 0.1
v 0.2 0.2 0.1
v 0.2 0.3 0.1
v 0.2 0.4 0.1
v 0.2 1.1 0.1
v 0.2 1.2 0.1
v 0.3 0.2 0.1
v 0.3 0.3 0.1
v 0.3 0.4 0.1
v 0.3 0.5 0.1
v 0.4 0.3 0.1
v 0.4 0.4 0.1
v 0.4 0.5 0.1
v 0.4 0.6 0.1
v 0.4 1.1 0.1
v 0.4 1.2 0.1
v 0.5 0.4 0.1
v 0.5 0.5 0.1
v 0.5 0.6 0.1
v 0.5 0.7 0.1
v 0.5 1 0.1
v 0.5 1.1 0.1
v 0.5 1.2 0.1
v 0.5 1.3 0.1
v 0.6 0.5 0.1
v 0.6 0.6 0.1
v 0.6 0.7 0.1
v 0.6 1 0.1
v 0.6 1.1 0.1
v 0.6 1.2 0.1
v 0.7 0.6 0.1
v 0.7 1.1 0.1
v -0.6 0.7 0
v -0.6 1 0
v -0.5 0.6 0
v -0.5 0.7 0
v -0.5 1 0
v -0.5 1.1 0
v -0.4 0.5 0
v -0.4 0.6 0
v -0.4 1.1 0
v -0.4 1.2 0
v -0.3 0.4 0
v -0.3 0.5 0
v -0.2 0.3 0
v -0.2 0.4 0
v -0.2 1.1 0
v -0.2 1.2 0
v -0.1 0.2 0
v -0.1 0.3 0
v -0.1 1 0
v -0.1 1.1 0
v 0.1 0.2 0
v 0.1 0.3 0
v 0.1 1 0
v 0.1 1.1 0
v 0.2 0.3 0
v 0.2 0.4 0
v 0.2 1.1 0
v 0.2 1.2 0
v 0.3 0.4 0
v 0.3 0.5 0
v 0.4 0.5 0
v 0.4 0.6 0
v 0.4 1.1 0
v 0.4 1.2 0
v 0.5 0.6 0
v 0.5 0.7 0
v 0.5 1 0
v 0.5 1.1 0
v 0.6 0.7 0
v 0.6 1 0
v -0.1 0 0.3
v 0.1 0 0.3
v -0.1 0 0.1
v 0.1 0 0.1
v -0.2 0.1 0.3
v -0.1 0.1 0.3
v 0.1 0.1 0.3
v 0.2 0.1 0.3
v -0.2 0.1 0.1
v -0.1 0.1 0.1
v 0.1 0.1 0.1
v 0.2 0.1 0.1
v -0.1 0.2 0.4
v 0.1 0.2 0.4
v -0.3 0.2 0.3
v -0.2 0.2 0.3
v -0.1 0.2 0.3
v 0.1 0.2 0.3
v 0.2 0.2 0.3
v 0.3 0.2 0.3
v -0.3 0.2 0.1
v -0.2 0.2 0.1
v -0.1 0.2 0.1
v 0.1 0.2 0.1
v 0.2 0.2 0.1
v 0.3 0.2 0.1
v -0.1 0.2 0
v 0.1 0.2 0
v -0.2 0.3 0.4
v -0.1 0.3 0.4
v 0.1 0.3 0.4
v 0.2 0.3 0.4
v -0.4 0.3 0.3
v -0.3 0.3 0.3
v -0.2 0.3 0.3
v -0.1 0.3 0.3
v 0.1 0.3 0.3
v 0.2 0.3 0.3
v 0.3 0.3 0.3
v 0.4 0.3 0.3
v -0.4 0.3 0.1
v -0.3 0.3 0.1
v -0.2 0.3 0.1
v -0.1 0.3 0.1
v 0.1 0.3 0.1
v 0.2 0.3 0.1
v 0.3 0.3 0.1
v 0.4 0.3 0.1
v -0.2 0.3 0
v -0.1 0.3 0
v 0.1 0.3 0
v 0.2 0.3 0
v -0.3 0.4 0.4
v -0.2 0.4 0.4
v 0.2 0.4 0.4
v 0.3 0.4 0.4
v -0.5 0.4 0.3
v -0.4 0.4 0.3
v -0.3 0.4 0.3
v -0.2 0.4 0.3
v 0.2 0.4 0.3
v 0.3 0.4 0.3
v 0.4 0.4 0.3
v 0.5 0.4 0.3
v -0.5 0.4 0.1
v -0.4 0.4 0.1
v -0.3 0.4 0.1
v -0.2 0.4 0.1
v 0.2 0.4 0.1
v 0.3 0.4 0.1
v 0.4 0.4 0.1
v 0.5 0.4 0.1
v -0.3 0.4 0
v -0.2 0.4 0
v 0.2 0.4 0
v 0.3 0.4 0
v -0.4 0.5 0.4
v -0.3 0.5 0.4
v 0.3 0.5 0.4
v 0.4 0.5 0.4
v -0.6 0.5 0.3
v -0.5 0.5 0.3
v -0.4 0.5 0.3
v -0.3 0.5 0.3
v 0.3 0.5 0.3
v 0.4 0.5 0.3
v 0.5 0.5 0.3
v 0.6 0.5 0.3
v -0.6 0.5 0.1
v -0.5 0.5 0.1
v -0.4 0.5 0.1
v -0.3 0.5 0.1
v 0.3 0.5 0.1
v 0.4 0.5 0.1
v 0.5 0.5 0.1
v 0.6 0.5 0.1
v -0.4 0.5 0
v -0.3 0.5 0
v 0.3 0.5 0
v 0.4 0.5 0
v -0.5 0.6 0.4
v -0.4 0.6 0.4
v 0.4 0.6 0.4
v 0.5 0.6 0.4
v -0.7 0.6 0.3
v -0.6 0.6 0.3
v -0.5 0.6 0.3
v -0.4 0.6 0.3
v 0.4 0.6 0.3
v 0.5 0.6 0.3
v 0.6 0.6 0.3
v 0.7 0.6 0.3
v -0.7 0.6 0.1
v -0.6 0.6 0.1
v -0.5 0.6 0.1
v -0.4 0.6 0.1
v 0.4 0.6 0.1
v 0.5 0.6 0.1
v 0.6 0.6 0.1
v 0.7 0.6 0.1
v -0.5 0.6 0
v -0.4 0.6 0
v 0.4 0.6 0
v 0.5 0.6 0
v -0.6 0.7 0.4
v -0.5 0.7 0.4
v 0.5 0.7 0.4
v 0.6 0.7 0.4
v -0.6 0.7 0.3
v -0.5 0.7 0.3
v 0.5 0.7 0.3
v 0.6 0.7 0.3
v -0.6 0.7 0.1
v -0.5 0.7 0.1
v 0.5 0.7 0.1
v 0.6 0.7 0.1
v -0.6 0.7 0
v -0.5 0.7 0
v 0.5 0.7 0
v 0.6 0.7 0
v -0.6 1 0.4
v -0.5 1 0.4
v -0.1 1 0.4
v 0.1 1 0.4
v 0.5 1 0.4
v 0.6 1 0.4
v -0.6 1 0.3
v -0.5 1 0.3
v -0.1 1 0.3
v 0.1 1 0.3
v 0.5 1 0.3
v 0.6 1 0.3
v -0.6 1 0.1
v -0.5 1 0.1
v -0.1 1 0.1
v 0.1 1 0.1
v 0.5 1 0.1
v 0.6 1 0.1
v -0.6 1 0
v -0.5 1 0
v -0.1 1 0
v 0.1 1 0
v 0.5 1 0
v 0.6 1 0
v -0.5 1.1 0.4
v -0.4 1.1 0.4
v -0.2 1.1 0.4
v -0.1 1.1 0.4
v 0.1 1.1 0.4
v 0.2 1.1 0.4
v 0.4 1.1 0.4
v 0.5 1.1 0.4
v -0.7 1.1 0.3
v -0.6 1.1 0.3
v -0.5 1.1 0.3
v -0.4 1.1 0.3
v -0.2 1.1 0.3
v -0.1 1.1 0.3
v 0.1 1.1 0.3
v 0.2 1.1 0.3
v 0.4 1.1 0.3
v 0.5 1.1 0.3
v 0.6 1.1 0.3
v 0.7 1.1 0.3
v -0.7 1.1 0.1
v -0.6 1.1 0.1
v -0.5 1.1 0.1
v -0.4 1.1 0.1
v -0.2 1.1 0.1
v -0.1 1.1 0.1
v 0.1 1.1 0.1
v 0.2 1.1 0.1
v 0.4 1.1 0.1
v 0.5 1.1 0.1
v 0.6 1.1 0.1
v 0.7 1.1 0.1
v -0.5 1.1 0
v -0.4 1.1 0
v -0.2 1.1 0
v -0.1 1.1 0
v 0.1 1.1 0
v 0.2 1.1 0
v 0.4 1.1 0
v 0.5 1.1 0
v -0.4 1.2 0.4
v -0.2 1.2 0.4
v 0.2 1.2 0.4
v 0.4 1.2 0.4
v -0.6 1.2 0.3
v -0.5 1.2 0.3
v -0.4 1.2 0.3
v -0.2 1.2 0.3
v -0.1 1.2 0.3
v 0.1 1.2 0.3
v 0.2 1.2 0.3
v 0.4 1.2 0.3
v 0.5 1.2 0.3
v 0.6 1.2 0.3
v -0.6 1.2 0.1
v -0.5 1.2 0.1
v -0.4 1.2 0.1
v -0.2 1.2 0.1
v -0.1 1.2 0.1
v 0.1 1.2 0.1
v 0.2 1.2 0.1
v 0.4 1.2 0.1
v 0.5 1.2 0.1
v 0.6 1.2 0.1
v -0.4 1.2 0
v -0.2 1.2 0
v 0.2 1.2 0
v 0.4 1.2 0
v -0.5 1.3 0.3
v -0.1 1.3 0.3
v 0.1 1.3 0.3
v 0.5 1.3 0.3
v -0.5 1.3 0.1
v -0.1 1.3 0.1
v 0.1 1.3 0.1
v 0.5 1.3 0.1

# faces
f 3/1/1 2/1/1 1/1/1
f 4/1/1 2/1/1 3/1/1
f 7/1/1 6/1/1 5/1/1
f 8/1/1 6/1/1 7/1/1
f 13/2/1 10/2/1 9/2/1
f 14/2/1 10/2/1 13/2/1
f 15/2/1 12/2/1 11/2/1
f 16/2/1 12/2/1 15/2/1
f 19/1/1 18/1/1 17/1/1
f 20/1/1 18/1/1 19/1/1
f 23/1/1 22/1/1 21/1/1
f 24/1/1 22/1/1 23/1/1
f 29/2/1 26/2/1 25/2/1
f 30/2/1 26/2/1 29/2/1
f 31/2/1 28/2/1 27/2/1
f 32/2/1 28/2/1 31/2/1
f 37/2/1 34/2/1 33/2/1
f 38/2/1 34/2/1 37/2/1
f 39/2/1 36/2/1 35/2/1
f 40/2/1 36/2/1 39/2/1
f 43/1/1 42/1/1 41/1/1
f 44/1/1 42/1/1 43/1/1
f 47/1/1 46/1/1 45/1/1
f 48/1/1 46/1/1 47/1/1
f 53/2/1 50/2/1 49/2/1
f 54/2/1 50/2/1 53/2/1
f 55/2/1 52/2/1 51/2/1
f 56/2/1 52/2/1 55/2/1
f 61/2/1 58/2/1 57/2/1
f 62/2/1 58/2/1 61/2/1
f 63/2/1 60/2/1 59/2/1
f 64/2/1 60/2/1 63/2/1
f 67/1/1 66/1/1 65/1/1
f 68/1/1 66/1/1 67/1/1
f 73/2/1 70/2/1 69/2/1
f 74/2/1 70/2/1 73/2/1
f 75/2/1 72/2/1 71/2/1
f 76/2/1 72/2/1 75/2/1
f 79/1/1 78/1/1 77/1/1
f 80/1/1 78/1/1 79/1/1
f 85/2/1 82/2/1 81/2/1
f 86/2/1 82/2/1 85/2/1
f 87/2/1 84/2/1 83/2/1
f 88/2/1 84/2/1 87/2/1
f 91/1/1 90/1/1 89/1/1
f 92/1/1 90/1/1 91/1/1
f 97/2/1 94/2/1 93/2/1
f 98/2/1 94/2/1 97/2/1
f 99/2/1 96/2/1 95/2/1
f 100/2/1 96/2/1 99/2/1
f 105/2/1 102/2/1 101/2/1
f 106/2/1 102/2/1 105/2/1
f 107/2/1 104/2/1 103/2/1
f 108/2/1 104/2/1 107/2/1
f 111/1/1 110/1/1 109/1/1
f 112/1/1 110/1/1 111/1/1
f 117/2/1 114/2/1 113/2/1
f 118/2/1 114/2/1 117/2/1
f 119/2/1 116/2/1 115/2/1
f 120/2/1 116/2/1 119/2/1
f 121/2/2 122/2/2 125/2/2
f 125/2/2 122/2/2 126/2/2
f 123/2/2 124/2/2 127/2/2
f 127/2/2 124/2/2 128/2/2
f 129/2/2 130/2/2 133/2/2
f 133/2/2 130/2/2 134/2/2
f 131/2/2 132/2/2 135/2/2
f 135/2/2 132/2/2 136/2/2
f 137/1/2 138/1/2 139/1/2
f 139/1/2 138/1/2 140/1/2
f 141/1/2 142/1/2 143/1/2
f 143/1/2 142/1/2 144/1/2
f 145/2/2 146/2/2 149/2/2
f 149/2/2 146/2/2 150/2/2
f 147/2/2 148/2/2 151/2/2
f 151/2/2 148/2/2 152/2/2
f 153/1/2 154/1/2 155/1/2
f 155/1/2 154/1/2 156/1/2
f 157/2/2 158/2/2 161/2/2
f 161/2/2 158/2/2 162/2/2
f 159/2/2 160/2/2 163/2/2
f 163/2/2 160/2/2 164/2/2
f 165/1/2 166/1/2 167/1/2
f 167/1/2 166/1/2 168/1/2
f 169/2/2 170/2/2 173/2/2
f 173/2/2 170/2/2 174/2/2
f 171/2/2 172/2/2 175/2/2
f 175/2/2 172/2/2 176/2/2
f 177/1/2 178/1/2 179/1/2
f 179/1/2 178/1/2 180/1/2
f 181/2/2 182/2/2 185/2/2
f 185/2/2 182/2/2 186/2/2
f 183/2/2 184/2/2 187/2/2
f 187/2/2 184/2/2 188/2/2
f 189/2/2 190/2/2 193/2/2
f 193/2/2 190/2/2 194/2/2
f 191/2/2 192/2/2 195/2/2
f 195/2/2 192/2/2 196/2/2
f 197/1/2 198/1/2 199/1/2
f 199/1/2 198/1/2 200/1/2
f 201/2/2 202/2/2 205/2/2
f 205/2/2 202/2/2 206/2/2
f 203/2/2 204/2/2 207/2/2
f 207/2/2 204/2/2 208/2/2
f 209/2/2 210/2/2 213/2/2
f 213/2/2 210/2/2 214/2/2
f 211/2/2 212/2/2 215/2/2
f 215/2/2 212/2/2 216/2/2
f 217/1/2 218/1/2 219/1/2
f 219/1/2 218/1/2 220/1/2
f 221/1/2 222/1/2 223/1/2
f 223/1/2 222/1/2 224/1/2
f 225/2/2 226/2/2 229/2/2
f 229/2/2 226/2/2 230/2/2
f 227/2/2 228/2/2 231/2/2
f 231/2/2 228/2/2 232/2/2
f 233/1/2 234/1/2 235/1/2
f 235/1/2 234/1/2 236/1/2
f 237/1/2 238/1/2 239/1/2
f 239/1/2 238/1/2 240/1/2
f 244/2/3 242/2/3 241/2/3
f 245/2/3 242/2/3 244/2/3
f 248/2/3 244/2/3 243/2/3
f 248/2/3 246/2/3 245/2/3
f 248/2/3 245/2/3 244/2/3
f 249/2/3 246/2/3 248/2/3
f 252/2/3 248/2/3 247/2/3
f 252/2/3 250/2/3 249/2/3
f 252/2/3 249/2/3 248/2/3
f 254/2/3 252/2/3 251/2/3
f 255/2/3 250/2/3 252/2/3
f 255/2/3 252/2/3 254/2/3
f 256/2/3 250/2/3 255/2/3
f 258/2/3 254/2/3 253/2/3
f 258/2/3 255/2/3 254/2/3
f 259/2/3 255/2/3 258/2/3
f 260/2/3 255/2/3 259/2/3
f 261/2/3 258/2/3 257/2/3
f 261/2/3 259/2/3 258/2/3
f 262/2/3 259/2/3 261/2/3
f 263/2/3 259/2/3 262/2/3
f 265/2/3 264/2/3 263/2/3
f 265/2/3 263/2/3 262/2/3
f 266/2/3 264/2/3 265/2/3
f 267/2/3 264/2/3 266/2/3
f 269/2/3 267/2/3 266/2/3
f 269/2/3 268/2/3 267/2/3
f 270/2/3 268/2/3 269/2/3
f 271/2/3 268/2/3 270/2/3
f 272/2/3 268/2/3 271/2/3
f 273/2/3 268/2/3 272/2/3
f 274/2/3 268/2/3 273/2/3
f 275/2/3 273/2/3 272/2/3
f 276/2/3 273/2/3 275/2/3
f 277/2/3 273/2/3 276/2/3
f 278/2/3 273/2/3 277/2/3
f 279/2/3 277/2/3 276/2/3
f 280/2/3 277/2/3 279/2/3
f 284/1/3 282/1/3 281/1/3
f 285/1/3 282/1/3 284/1/3
f 286/1/3 282/1/3 285/1/3
f 287/1/3 282/1/3 286/1/3
f 290/1/3 284/1/3 283/1/3
f 290/1/3 285/1/3 284/1/3
f 291/1/3 285/1/3 290/1/3
f 292/1/3 285/1/3 291/1/3
f 293/1/3 287/1/3 286/1/3
f 293/1/3 288/1/3 287/1/3
f 294/1/3 288/1/3 293/1/3
f 295/1/3 288/1/3 294/1/3
f 298/1/3 291/1/3 290/1/3
f 298/1/3 290/1/3 289/1/3
f 299/1/3 291/1/3 298/1/3
f 300/1/3 291/1/3 299/1/3
f 301/1/3 296/1/3 295/1/3
f 301/1/3 295/1/3 294/1/3
f 302/1/3 296/1/3 301/1/3
f 304/1/3 299/1/3 298/1/3
f 304/1/3 298/1/3 297/1/3
f 305/1/3 299/1/3 304/1/3
f 306/1/3 299/1/3 305/1/3
f 308/1/3 304/1/3 303/1/3
f 308/1/3 305/1/3 304/1/3
f 309/1/3 305/1/3 308/1/3
f 310/1/3 305/1/3 309/1/3
f 312/1/3 296/1/3 302/1/3
f 314/1/3 309/1/3 308/1/3
f 314/1/3 308/1/3 307/1/3
f 315/1/3 309/1/3 314/1/3
f 316/1/3 309/1/3 315/1/3
f 318/1/3 312/1/3 311/1/3
f 319/1/3 296/1/3 312/1/3
f 319/1/3 312/1/3 318/1/3
f 320/1/3 296/1/3 319/1/3
f 321/1/3 314/1/3 313/1/3
f 321/1/3 315/1/3 314/1/3
f 322/1/3 315/1/3 321/1/3
f 323/1/3 315/1/3 322/1/3
f 325/1/3 318/1/3 317/1/3
f 325/1/3 319/1/3 318/1/3
f 326/1/3 319/1/3 325/1/3
f 327/1/3 319/1/3 326/1/3
f 329/1/3 324/1/3 323/1/3
f 329/1/3 323/1/3 322/1/3
f 330/1/3 324/1/3 329/1/3
f 331/1/3 324/1/3 330/1/3
f 333/1/3 328/1/3 327/1/3
f 333/1/3 327/1/3 326/1/3
f 334/1/3 328/1/3 333/1/3
f 335/1/3 332/1/3 331/1/3
f 335/1/3 331/1/3 330/1/3
f 336/1/3 332/1/3 335/1/3
f 337/1/3 332/1/3 336/1/3
f 339/1/3 338/1/3 337/1/3
f 339/1/3 337/1/3 336/1/3
f 340/1/3 338/1/3 339/1/3
f 341/1/3 338/1/3 340/1/3
f 344/1/3 328/1/3 334/1/3
f 345/1/3 342/1/3 341/1/3
f 345/1/3 341/1/3 340/1/3
f 346/1/3 342/1/3 345/1/3
f 347/1/3 342/1/3 346/1/3
f 350/1/3 344/1/3 343/1/3
f 351/1/3 328/1/3 344/1/3
f 351/1/3 344/1/3 350/1/3
f 352/1/3 328/1/3 351/1/3
f 353/1/3 348/1/3 347/1/3
f 353/1/3 347/1/3 346/1/3
f 354/1/3 348/1/3 353/1/3
f 355/1/3 348/1/3 354/1/3
f 356/1/3 350/1/3 349/1/3
f 356/1/3 351/1/3 350/1/3
f 357/1/3 351/1/3 356/1/3
f 358/1/3 351/1/3 357/1/3
f 359/1/3 355/1/3 354/1/3
f 359/1/3 357/1/3 356/1/3
f 359/1/3 356/1/3 355/1/3
f 360/1/3 357/1/3 359/1/3
f 361/1/4 362/1/4 364/1/4
f 364/1/4 362/1/4 365/1/4
f 365/1/4 362/1/4 366/1/4
f 366/1/4 362/1/4 367/1/4
f 363/1/4 364/1/4 370/1/4
f 364/1/4 365/1/4 370/1/4
f 370/1/4 365/1/4 371/1/4
f 371/1/4 365/1/4 372/1/4
f 366/1/4 367/1/4 373/1/4
f 367/1/4 368/1/4 373/1/4
f 373/1/4 368/1/4 374/1/4
f 374/1/4 368/1/4 375/1/4
f 370/1/4 371/1/4 378/1/4
f 369/1/4 370/1/4 378/1/4
f 378/1/4 371/1/4 379/1/4
f 379/1/4 371/1/4 380/1/4
f 375/1/4 376/1/4 381/1/4
f 374/1/4 375/1/4 381/1/4
f 381/1/4 376/1/4 382/1/4
f 378/1/4 379/1/4 384/1/4
f 377/1/4 378/1/4 384/1/4
f 384/1/4 379/1/4 385/1/4
f 385/1/4 379/1/4 386/1/4
f 383/1/4 384/1/4 388/1/4
f 384/1/4 385/1/4 388/1/4
f 388/1/4 385/1/4 389/1/4
f 389/1/4 385/1/4 390/1/4
f 382/1/4 376/1/4 392/1/4
f 388/1/4 389/1/4 394/1/4
f 387/1/4 388/1/4 394/1/4
f 394/1/4 389/1/4 395/1/4
f 395/1/4 389/1/4 396/1/4
f 391/1/4 392/1/4 398/1/4
f 392/1/4 376/1/4 399/1/4
f 398/1/4 392/1/4 399/1/4
f 399/1/4 376/1/4 400/1/4
f 393/1/4 394/1/4 401/1/4
f 394/1/4 395/1/4 401/1/4
f 401/1/4 395/1/4 402/1/4
f 402/1/4 395/1/4 403/1/4
f 397/1/4 398/1/4 405/1/4
f 398/1/4 399/1/4 405/1/4
f 405/1/4 399/1/4 406/1/4
f 406/1/4 399/1/4 407/1/4
f 403/1/4 404/1/4 409/1/4
f 402/1/4 403/1/4 409/1/4
f 409/1/4 404/1/4 410/1/4
f 410/1/4 404/1/4 411/1/4
f 407/1/4 408/1/4 413/1/4
f 406/1/4 407/1/4 413/1/4
f 413/1/4 408/1/4 414/1/4
f 411/1/4 412/1/4 415/1/4
f 410/1/4 411/1/4 415/1/4
f 415/1/4 412/1/4 416/1/4
f 416/1/4 412/1/4 417/1/4
f 417/1/4 418/1/4 419/1/4
f 416/1/4 417/1/4 419/1/4
f 419/1/4 418/1/4 420/1/4
f 420/1/4 418/1/4 421/1/4
f 414/1/4 408/1/4 424/1/4
f 421/1/4 422/1/4 425/1/4
f 420/1/4 421/1/4 425/1/4
f 425/1/4 422/1/4 426/1/4
f 426/1/4 422/1/4 427/1/4
f 423/1/4 424/1/4 430/1/4
f 424/1/4 408/1/4 431/1/4
f 430/1/4 424/1/4 431/1/4
f 431/1/4 408/1/4 432/1/4
f 427/1/4 428/1/4 433/1/4
f 426/1/4 427/1/4 433/1/4
f 433/1/4 428/1/4 434/1/4
f 434/1/4 428/1/4 435/1/4
f 429/1/4 430/1/4 436/1/4
f 430/1/4 431/1/4 436/1/4
f 436/1/4 431/1/4 437/1/4
f 437/1/4 431/1/4 438/1/4
f 434/1/4 435/1/4 439/1/4
f 436/1/4 437/1/4 439/1/4
f 435/1/4 436/1/4 439/1/4
f 439/1/4 437/1/4 440/1/4
f 441/2/4 442/2/4 444/2/4
f 444/2/4 442/2/4 445/2/4
f 443/2/4 444/2/4 448/2/4
f 445/2/4 446/2/4 448/2/4
f 444/2/4 445/2/4 448/2/4
f 448/2/4 446/2/4 449/2/4
f 447/2/4 448/2/4 452/2/4
f 449/2/4 450/2/4 452/2/4
f 448/2/4 449/2/4 452/2/4
f 451/2/4 452/2/4 454/2/4
f 452/2/4 450/2/4 455/2/4
f 454/2/4 452/2/4 455/2/4
f 455/2/4 450/2/4 456/2/4
f 453/2/4 454/2/4 458/2/4
f 454/2/4 455/2/4 458/2/4
f 458/2/4 455/2/4 459/2/4
f 459/2/4 455/2/4 460/2/4
f 457/2/4 458/2/4 461/2/4
f 458/2/4 459/2/4 461/2/4
f 461/2/4 459/2/4 462/2/4
f 462/2/4 459/2/4 463/2/4
f 463/2/4 464/2/4 465/2/4
f 462/2/4 463/2/4 465/2/4
f 465/2/4 464/2/4 466/2/4
f 466/2/4 464/2/4 467/2/4
f 466/2/4 467/2/4 469/2/4
f 467/2/4 468/2/4 469/2/4
f 469/2/4 468/2/4 470/2/4
f 470/2/4 468/2/4 471/2/4
f 471/2/4 468/2/4 472/2/4
f 472/2/4 468/2/4 473/2/4
f 473/2/4 468/2/4 474/2/4
f 472/2/4 473/2/4 475/2/4
f 475/2/4 473/2/4 476/2/4
f 476/2/4 473/2/4 477/2/4
f 477/2/4 473/2/4 478/2/4
f 476/2/4 477/2/4 479/2/4
f 479/2/4 477/2/4 480/2/4
f 483/1/5 482/1/5 481/1/5
f 484/1/5 482/1/5 483/1/5
f 489/1/5 486/1/5 485/1/5
f 490/1/5 486/1/5 489/1/5
f 491/1/5 488/1/5 487/1/5
f 492/1/5 488/1/5 491/1/5
f 497/2/5 494/2/5 493/2/5
f 498/2/5 494/2/5 497/2/5
f 501/1/5 496/1/5 495/1/5
f 502/1/5 496/1/5 501/1/5
f 505/1/5 500/1/5 499/1/5
f 506/1/5 500/1/5 505/1/5
f 507/2/5 504/2/5 503/2/5
f 508/2/5 504/2/5 507/2/5
f 515/2/5 510/2/5 509/2/5
f 516/2/5 510/2/5 515/2/5
f 517/2/5 512/2/5 511/2/5
f 518/2/5 512/2/5 517/2/5
f 521/1/5 514/1/5 513/1/5
f 522/1/5 514/1/5 521/1/5
f 527/1/5 520/1/5 519/1/5
f 528/1/5 520/1/5 527/1/5
f 529/2/5 524/2/5 523/2/5
f 530/2/5 524/2/5 529/2/5
f 531/2/5 526/2/5 525/2/5
f 532/2/5 526/2/5 531/2/5
f 539/2/5 534/2/5 533/2/5
f 540/2/5 534/2/5 539/2/5
f 541/2/5 536/2/5 535/2/5
f 542/2/5 536/2/5 541/2/5
f 545/1/5 538/1/5 537/1/5
f 546/1/5 538/1/5 545/1/5
f 551/1/5 544/1/5 543/1/5
f 552/1/5 544/1/5 551/1/5
f 553/2/5 548/2/5 547/2/5
f 554/2/5 548/2/5 553/2/5
f 555/2/5 550/2/5 549/2/5
f 556/2/5 550/2/5 555/2/5
f 563/2/5 558/2/5 557/2/5
f 564/2/5 558/2/5 563/2/5
f 565/2/5 560/2/5 559/2/5
f 566/2/5 560/2/5 565/2/5
f 569/1/5 562/1/5 561/1/5
f 570/1/5 562/1/5 569/1/5
f 575/1/5 568/1/5 567/1/5
f 576/1/5 568/1/5 575/1/5
f 577/2/5 572/2/5 571/2/5
f 578/2/5 572/2/5 577/2/5
f 579/2/5 574/2/5 573/2/5
f 580/2/5 574/2/5 579/2/5
f 587/2/5 582/2/5 581/2/5
f 588/2/5 582/2/5 587/2/5
f 589/2/5 584/2/5 583/2/5
f 590/2/5 584/2/5 589/2/5
f 593/1/5 586/1/5 585/1/5
f 594/1/5 586/1/5 593/1/5
f 599/1/5 592/1/5 591/1/5
f 600/1/5 592/1/5 599/1/5
f 601/2/5 596/2/5 595/2/5
f 602/2/5 596/2/5 601/2/5
f 603/2/5 598/2/5 597/2/5
f 604/2/5 598/2/5 603/2/5
f 609/2/5 606/2/5 605/2/5
f 610/2/5 606/2/5 609/2/5
f 611/2/5 608/2/5 607/2/5
f 612/2/5 608/2/5 611/2/5
f 617/2/5 614/2/5 613/2/5
f 618/2/5 614/2/5 617/2/5
f 619/2/5 616/2/5 615/2/5
f 620/2/5 616/2/5 619/2/5
f 621/2/6 622/2/6 627/2/6
f 627/2/6 622/2/6 628/2/6
f 623/2/6 624/2/6 629/2/6
f 629/2/6 624/2/6 630/2/6
f 625/2/6 626/2/6 631/2/6
f 631/2/6 626/2/6 632/2/6
f 633/2/6 634/2/6 639/2/6
f 639/2/6 634/2/6 640/2/6
f 635/2/6 636/2/6 641/2/6
f 641/2/6 636/2/6 642/2/6
f 637/2/6 638/2/6 643/2/6
f 643/2/6 638/2/6 644/2/6
f 645/2/6 646/2/6 655/2/6
f 655/2/6 646/2/6 656/2/6
f 647/2/6 648/2/6 657/2/6
f 657/2/6 648/2/6 658/2/6
f 649/2/6 650/2/6 659/2/6
f 659/2/6 650/2/6 660/2/6
f 651/2/6 652/2/6 661/2/6
f 661/2/6 652/2/6 662/2/6
f 653/1/6 654/1/6 665/1/6
f 665/1/6 654/1/6 666/1/6
f 663/1/6 664/1/6 675/1/6
f 675/1/6 664/1/6 676/1/6
f 667/2/6 668/2/6 677/2/6
f 677/2/6 668/2/6 678/2/6
f 669/2/6 670/2/6 679/2/6
f 679/2/6 670/2/6 680/2/6
f 671/2/6 672/2/6 681/2/6
f 681/2/6 672/2/6 682/2/6
f 673/2/6 674/2/6 683/2/6
f 683/2/6 674/2/6 684/2/6
f 685/2/6 686/2/6 691/2/6
f 691/2/6 686/2/6 692/2/6
f 687/2/6 688/2/6 695/2/6
f 695/2/6 688/2/6 696/2/6
f 689/1/6 690/1/6 699/1/6
f 699/1/6 690/1/6 700/1/6
f 693/1/6 694/1/6 703/1/6
f 703/1/6 694/1/6 704/1/6
f 697/1/6 698/1/6 707/1/6
f 707/1/6 698/1/6 708/1/6
f 701/2/6 702/2/6 709/2/6
f 709/2/6 702/2/6 710/2/6
f 705/2/6 706/2/6 711/2/6
f 711/2/6 706/2/6 712/2/6
f 713/1/6 714/1/6 717/1/6
f 717/1/6 714/1/6 718/1/6
f 715/1/6 716/1/6 719/1/6
f 719/1/6 716/1/6 720/1/6
