# MagicaVoxel @ Ephtracy

# group
o 

# material
mtllib Warning Sign.mtl
usemtl palette

# normals
vn -1 0 0
vn 1 0 0
vn 0 0 1
vn 0 0 -1
vn 0 -1 0
vn 0 1 0

# texcoords
vt 0.970703 0.5
vt 0.974609 0.5
vt 0.978516 0.5
vt 0.982422 0.5
vt 0.994141 0.5

# verts
v -0.2 0 0.6
v -0.2 0 0.4
v -0.2 0 -0.2
v -0.2 0 -0.4
v -0.2 0.3 0.6
v -0.2 0.3 0.4
v -0.2 0.3 -0.2
v -0.2 0.3 -0.4
v -0.2 1.4 0.6
v -0.2 1.4 0.4
v -0.2 1.4 -0.2
v -0.2 1.4 -0.4
v -0.1 0.4 0.8
v -0.1 0.4 0.6
v -0.1 0.4 0.4
v -0.1 0.4 -0.2
v -0.1 0.4 -0.4
v -0.1 0.4 -0.6
v -0.1 0.5 0.7
v -0.1 0.5 0.6
v -0.1 0.5 -0.4
v -0.1 0.5 -0.5
v -0.1 0.6 0.8
v -0.1 0.6 0.7
v -0.1 0.6 0.4
v -0.1 0.6 -0.2
v -0.1 0.6 -0.5
v -0.1 0.6 -0.6
v -0.1 0.7 0.7
v -0.1 0.7 0.6
v -0.1 0.7 -0.4
v -0.1 0.7 -0.5
v -0.1 1 0.7
v -0.1 1 0.6
v -0.1 1 -0.4
v -0.1 1 -0.5
v -0.1 1.1 0.8
v -0.1 1.1 0.7
v -0.1 1.1 0.4
v -0.1 1.1 -0.2
v -0.1 1.1 -0.5
v -0.1 1.1 -0.6
v -0.1 1.2 0.7
v -0.1 1.2 0.6
v -0.1 1.2 -0.4
v -0.1 1.2 -0.5
v -0.1 1.3 0.8
v -0.1 1.3 0.6
v -0.1 1.3 0.4
v -0.1 1.3 -0.2
v -0.1 1.3 -0.4
v -0.1 1.3 -0.6
v 0 0 0.6
v 0 0 0.4
v 0 0 -0.2
v 0 0 -0.4
v 0 0.3 0.6
v 0 0.3 0.4
v 0 0.3 -0.2
v 0 0.3 -0.4
v 0 0.4 0.6
v 0 0.4 0.4
v 0 0.4 -0.2
v 0 0.4 -0.4
v 0 1.3 0.6
v 0 1.3 0.4
v 0 1.3 -0.2
v 0 1.3 -0.4
v 0 1.4 0.6
v 0 1.4 0.4
v 0 1.4 -0.2
v 0 1.4 -0.4
v 0.1 0.4 0.8
v 0.1 0.4 0.6
v 0.1 0.4 -0.4
v 0.1 0.4 -0.6
v 0.1 0.5 0.7
v 0.1 0.5 0.6
v 0.1 0.5 0.2
v 0.1 0.5 0
v 0.1 0.5 -0.4
v 0.1 0.5 -0.5
v 0.1 0.6 0.8
v 0.1 0.6 0.7
v 0.1 0.6 0.2
v 0.1 0.6 0
v 0.1 0.6 -0.5
v 0.1 0.6 -0.6
v 0.1 0.7 0.7
v 0.1 0.7 0.6
v 0.1 0.7 0.2
v 0.1 0.7 0
v 0.1 0.7 -0.4
v 0.1 0.7 -0.5
v 0.1 0.8 0.6
v 0.1 0.8 0.5
v 0.1 0.8 -0.3
v 0.1 0.8 -0.4
v 0.1 0.9 0.5
v 0.1 0.9 0.4
v 0.1 0.9 -0.2
v 0.1 0.9 -0.3
v 0.1 1 0.7
v 0.1 1 0.6
v 0.1 1 0.4
v 0.1 1 0.3
v 0.1 1 -0.1
v 0.1 1 -0.2
v 0.1 1 -0.4
v 0.1 1 -0.5
v 0.1 1.1 0.8
v 0.1 1.1 0.7
v 0.1 1.1 0.6
v 0.1 1.1 0.3
v 0.1 1.1 0.2
v 0.1 1.1 0
v 0.1 1.1 -0.1
v 0.1 1.1 -0.4
v 0.1 1.1 -0.5
v 0.1 1.1 -0.6
v 0.1 1.2 0.7
v 0.1 1.2 0.6
v 0.1 1.2 0.2
v 0.1 1.2 0
v 0.1 1.2 -0.4
v 0.1 1.2 -0.5
v 0.1 1.3 0.8
v 0.1 1.3 0.6
v 0.1 1.3 -0.4
v 0.1 1.3 -0.6
v -0.1 0.4 0.8
v -0.1 0.6 0.8
v -0.1 1.1 0.8
v -0.1 1.3 0.8
v 0.1 0.4 0.8
v 0.1 0.6 0.8
v 0.1 1.1 0.8
v 0.1 1.3 0.8
v -0.2 0 0.6
v -0.2 0.3 0.6
v -0.2 1.4 0.6
v -0.1 0.4 0.6
v -0.1 0.5 0.6
v -0.1 0.7 0.6
v -0.1 1 0.6
v -0.1 1.2 0.6
v -0.1 1.3 0.6
v 0 0 0.6
v 0 0.3 0.6
v 0 0.4 0.6
v 0 1.3 0.6
v 0 1.4 0.6
v -0.2 0 -0.2
v -0.2 0.3 -0.2
v -0.2 1.4 -0.2
v -0.1 0.4 -0.2
v -0.1 0.6 -0.2
v -0.1 1.1 -0.2
v -0.1 1.3 -0.2
v 0 0 -0.2
v 0 0.3 -0.2
v 0 0.4 -0.2
v 0 1.3 -0.2
v 0 1.4 -0.2
v -0.2 0 0.4
v -0.2 0.3 0.4
v -0.2 1.4 0.4
v -0.1 0.4 0.4
v -0.1 0.6 0.4
v -0.1 1.1 0.4
v -0.1 1.3 0.4
v 0 0 0.4
v 0 0.3 0.4
v 0 0.4 0.4
v 0 1.3 0.4
v 0 1.4 0.4
v -0.2 0 -0.4
v -0.2 0.3 -0.4
v -0.2 1.4 -0.4
v -0.1 0.4 -0.4
v -0.1 0.5 -0.4
v -0.1 0.7 -0.4
v -0.1 1 -0.4
v -0.1 1.2 -0.4
v -0.1 1.3 -0.4
v 0 0 -0.4
v 0 0.3 -0.4
v 0 0.4 -0.4
v 0 1.3 -0.4
v 0 1.4 -0.4
v -0.1 0.4 -0.6
v -0.1 0.6 -0.6
v -0.1 1.1 -0.6
v -0.1 1.3 -0.6
v 0.1 0.4 -0.6
v 0.1 0.6 -0.6
v 0.1 1.1 -0.6
v 0.1 1.3 -0.6
v -0.2 0 0.6
v 0 0 0.6
v -0.2 0 0.4
v 0 0 0.4
v -0.2 0 -0.2
v 0 0 -0.2
v -0.2 0 -0.4
v 0 0 -0.4
v -0.1 0.4 0.8
v 0.1 0.4 0.8
v -0.1 0.4 0.6
v 0 0.4 0.6
v 0.1 0.4 0.6
v -0.1 0.4 0.4
v 0 0.4 0.4
v -0.1 0.4 -0.2
v 0 0.4 -0.2
v -0.1 0.4 -0.4
v 0 0.4 -0.4
v 0.1 0.4 -0.4
v -0.1 0.4 -0.6
v 0.1 0.4 -0.6
v -0.1 1.3 0.8
v 0.1 1.3 0.8
v -0.1 1.3 0.6
v 0 1.3 0.6
v 0.1 1.3 0.6
v -0.1 1.3 0.4
v 0 1.3 0.4
v -0.1 1.3 -0.2
v 0 1.3 -0.2
v -0.1 1.3 -0.4
v 0 1.3 -0.4
v 0.1 1.3 -0.4
v -0.1 1.3 -0.6
v 0.1 1.3 -0.6
v -0.2 1.4 0.6
v 0 1.4 0.6
v -0.2 1.4 0.4
v 0 1.4 0.4
v -0.2 1.4 -0.2
v 0 1.4 -0.2
v -0.2 1.4 -0.4
v 0 1.4 -0.4

# faces
f 5/1/1 2/1/1 1/1/1
f 6/1/1 2/1/1 5/1/1
f 7/1/1 4/1/1 3/1/1
f 8/1/1 4/1/1 7/1/1
f 9/3/1 6/3/1 5/3/1
f 10/3/1 6/3/1 9/3/1
f 11/3/1 8/3/1 7/3/1
f 12/3/1 8/3/1 11/3/1
f 19/3/1 14/3/1 13/3/1
f 20/3/1 14/3/1 19/3/1
f 21/3/1 18/3/1 17/3/1
f 22/3/1 18/3/1 21/3/1
f 23/3/1 19/3/1 13/3/1
f 24/1/1 20/1/1 19/1/1
f 24/3/1 19/3/1 23/3/1
f 25/1/1 16/1/1 15/1/1
f 26/1/1 16/1/1 25/1/1
f 27/3/1 18/3/1 22/3/1
f 27/1/1 22/1/1 21/1/1
f 28/3/1 18/3/1 27/3/1
f 29/1/1 20/1/1 24/1/1
f 29/1/1 24/1/1 23/1/1
f 30/1/1 20/1/1 29/1/1
f 31/1/1 28/1/1 27/1/1
f 31/1/1 27/1/1 21/1/1
f 32/1/1 28/1/1 31/1/1
f 33/4/1 30/4/1 29/4/1
f 33/1/1 29/1/1 23/1/1
f 34/4/1 30/4/1 33/4/1
f 35/4/1 32/4/1 31/4/1
f 36/1/1 28/1/1 32/1/1
f 36/4/1 32/4/1 35/4/1
f 37/1/1 34/1/1 33/1/1
f 37/1/1 33/1/1 23/1/1
f 38/1/1 34/1/1 37/1/1
f 39/4/1 26/4/1 25/4/1
f 40/4/1 26/4/1 39/4/1
f 41/1/1 28/1/1 36/1/1
f 41/1/1 36/1/1 35/1/1
f 42/1/1 28/1/1 41/1/1
f 43/1/1 34/1/1 38/1/1
f 43/3/1 38/3/1 37/3/1
f 44/1/1 34/1/1 43/1/1
f 45/1/1 41/1/1 35/1/1
f 46/3/1 42/3/1 41/3/1
f 46/1/1 41/1/1 45/1/1
f 47/3/1 44/3/1 43/3/1
f 47/3/1 43/3/1 37/3/1
f 48/3/1 44/3/1 47/3/1
f 49/1/1 40/1/1 39/1/1
f 50/1/1 40/1/1 49/1/1
f 51/3/1 46/3/1 45/3/1
f 52/3/1 42/3/1 46/3/1
f 52/3/1 46/3/1 51/3/1
f 53/1/2 54/1/2 57/1/2
f 57/1/2 54/1/2 58/1/2
f 55/1/2 56/1/2 59/1/2
f 59/1/2 56/1/2 60/1/2
f 57/3/2 58/3/2 61/3/2
f 61/3/2 58/3/2 62/3/2
f 59/3/2 60/3/2 63/3/2
f 63/3/2 60/3/2 64/3/2
f 65/3/2 66/3/2 69/3/2
f 69/3/2 66/3/2 70/3/2
f 67/3/2 68/3/2 71/3/2
f 71/3/2 68/3/2 72/3/2
f 73/3/2 74/3/2 77/3/2
f 74/1/2 75/1/2 78/1/2
f 77/3/2 74/3/2 78/3/2
f 78/1/2 75/1/2 79/1/2
f 79/1/2 75/1/2 80/1/2
f 75/3/2 76/3/2 81/3/2
f 80/1/2 75/1/2 81/1/2
f 81/3/2 76/3/2 82/3/2
f 73/3/2 77/3/2 83/3/2
f 77/5/2 78/5/2 84/5/2
f 83/3/2 77/3/2 84/3/2
f 78/5/2 79/5/2 84/5/2
f 79/2/2 80/2/2 85/2/2
f 84/5/2 79/5/2 85/5/2
f 81/5/2 82/5/2 86/5/2
f 85/2/2 80/2/2 86/2/2
f 80/5/2 81/5/2 86/5/2
f 82/3/2 76/3/2 87/3/2
f 86/5/2 82/5/2 87/5/2
f 87/3/2 76/3/2 88/3/2
f 83/1/2 84/1/2 89/1/2
f 85/5/2 86/5/2 89/5/2
f 84/5/2 85/5/2 89/5/2
f 86/5/2 87/5/2 89/5/2
f 89/5/2 87/5/2 90/5/2
f 90/5/2 87/5/2 91/5/2
f 91/5/2 87/5/2 92/5/2
f 92/5/2 87/5/2 93/5/2
f 87/1/2 88/1/2 94/1/2
f 93/5/2 87/5/2 94/5/2
f 89/4/2 90/4/2 95/4/2
f 90/5/2 91/5/2 95/5/2
f 95/5/2 91/5/2 96/5/2
f 92/5/2 93/5/2 97/5/2
f 93/4/2 94/4/2 98/4/2
f 97/5/2 93/5/2 98/5/2
f 96/5/2 91/5/2 99/5/2
f 95/4/2 96/4/2 99/4/2
f 99/5/2 91/5/2 100/5/2
f 92/5/2 97/5/2 101/5/2
f 97/4/2 98/4/2 102/4/2
f 101/5/2 97/5/2 102/5/2
f 83/1/2 89/1/2 103/1/2
f 89/4/2 95/4/2 103/4/2
f 95/4/2 99/4/2 103/4/2
f 99/4/2 100/4/2 103/4/2
f 103/4/2 100/4/2 104/4/2
f 100/5/2 91/5/2 105/5/2
f 104/4/2 100/4/2 105/4/2
f 105/5/2 91/5/2 106/5/2
f 92/5/2 101/5/2 107/5/2
f 101/4/2 102/4/2 108/4/2
f 107/5/2 101/5/2 108/5/2
f 98/4/2 94/4/2 109/4/2
f 108/4/2 102/4/2 109/4/2
f 102/4/2 98/4/2 109/4/2
f 94/1/2 88/1/2 110/1/2
f 109/4/2 94/4/2 110/4/2
f 103/1/2 104/1/2 111/1/2
f 83/1/2 103/1/2 111/1/2
f 111/1/2 104/1/2 112/1/2
f 105/4/2 106/4/2 113/4/2
f 112/1/2 104/1/2 113/1/2
f 104/4/2 105/4/2 113/4/2
f 106/5/2 91/5/2 114/5/2
f 113/4/2 106/4/2 114/4/2
f 91/2/2 92/2/2 115/2/2
f 114/5/2 91/5/2 115/5/2
f 92/5/2 107/5/2 116/5/2
f 115/2/2 92/2/2 116/2/2
f 107/4/2 108/4/2 117/4/2
f 116/5/2 107/5/2 117/5/2
f 108/4/2 109/4/2 117/4/2
f 109/1/2 110/1/2 118/1/2
f 117/4/2 109/4/2 118/4/2
f 110/1/2 88/1/2 119/1/2
f 118/1/2 110/1/2 119/1/2
f 119/1/2 88/1/2 120/1/2
f 111/3/2 112/3/2 121/3/2
f 113/1/2 114/1/2 121/1/2
f 114/1/2 115/1/2 121/1/2
f 112/1/2 113/1/2 121/1/2
f 121/1/2 115/1/2 122/1/2
f 115/5/2 116/5/2 123/5/2
f 122/1/2 115/1/2 123/1/2
f 117/1/2 118/1/2 124/1/2
f 123/5/2 116/5/2 124/5/2
f 118/1/2 119/1/2 124/1/2
f 116/1/2 117/1/2 124/1/2
f 124/1/2 119/1/2 125/1/2
f 119/3/2 120/3/2 126/3/2
f 125/1/2 119/1/2 126/1/2
f 121/3/2 122/3/2 127/3/2
f 111/3/2 121/3/2 127/3/2
f 122/1/2 123/1/2 128/1/2
f 127/3/2 122/3/2 128/3/2
f 124/1/2 125/1/2 128/1/2
f 123/1/2 124/1/2 128/1/2
f 125/3/2 126/3/2 129/3/2
f 128/1/2 125/1/2 129/1/2
f 126/3/2 120/3/2 130/3/2
f 129/3/2 126/3/2 130/3/2
f 135/3/3 132/3/3 131/3/3
f 136/1/3 133/1/3 132/1/3
f 136/3/3 132/3/3 135/3/3
f 137/3/3 134/3/3 133/3/3
f 137/1/3 133/1/3 136/1/3
f 138/3/3 134/3/3 137/3/3
f 142/3/3 141/3/3 140/3/3
f 143/3/3 141/3/3 142/3/3
f 144/3/3 141/3/3 143/3/3
f 145/3/3 141/3/3 144/3/3
f 146/3/3 141/3/3 145/3/3
f 147/3/3 141/3/3 146/3/3
f 148/1/3 140/1/3 139/1/3
f 149/3/3 142/3/3 140/3/3
f 149/1/3 140/1/3 148/1/3
f 150/3/3 142/3/3 149/3/3
f 151/3/3 141/3/3 147/3/3
f 152/3/3 141/3/3 151/3/3
f 156/3/3 155/3/3 154/3/3
f 157/3/3 155/3/3 156/3/3
f 158/3/3 155/3/3 157/3/3
f 159/3/3 155/3/3 158/3/3
f 160/1/3 154/1/3 153/1/3
f 161/3/3 156/3/3 154/3/3
f 161/1/3 154/1/3 160/1/3
f 162/3/3 156/3/3 161/3/3
f 163/3/3 155/3/3 159/3/3
f 164/3/3 155/3/3 163/3/3
f 166/3/4 167/3/4 168/3/4
f 168/3/4 167/3/4 169/3/4
f 169/3/4 167/3/4 170/3/4
f 170/3/4 167/3/4 171/3/4
f 165/1/4 166/1/4 172/1/4
f 166/3/4 168/3/4 173/3/4
f 172/1/4 166/1/4 173/1/4
f 173/3/4 168/3/4 174/3/4
f 171/3/4 167/3/4 175/3/4
f 175/3/4 167/3/4 176/3/4
f 178/3/4 179/3/4 180/3/4
f 180/3/4 179/3/4 181/3/4
f 181/3/4 179/3/4 182/3/4
f 182/3/4 179/3/4 183/3/4
f 183/3/4 179/3/4 184/3/4
f 184/3/4 179/3/4 185/3/4
f 177/1/4 178/1/4 186/1/4
f 178/3/4 180/3/4 187/3/4
f 186/1/4 178/1/4 187/1/4
f 187/3/4 180/3/4 188/3/4
f 185/3/4 179/3/4 189/3/4
f 189/3/4 179/3/4 190/3/4
f 191/3/4 192/3/4 195/3/4
f 192/1/4 193/1/4 196/1/4
f 195/3/4 192/3/4 196/3/4
f 193/3/4 194/3/4 197/3/4
f 196/1/4 193/1/4 197/1/4
f 197/3/4 194/3/4 198/3/4
f 201/1/5 200/1/5 199/1/5
f 202/1/5 200/1/5 201/1/5
f 205/1/5 204/1/5 203/1/5
f 206/1/5 204/1/5 205/1/5
f 209/3/5 208/3/5 207/3/5
f 210/3/5 208/3/5 209/3/5
f 211/3/5 208/3/5 210/3/5
f 213/1/5 211/1/5 210/1/5
f 214/1/5 213/1/5 212/1/5
f 215/1/5 211/1/5 213/1/5
f 215/1/5 213/1/5 214/1/5
f 217/1/5 211/1/5 215/1/5
f 218/1/5 211/1/5 217/1/5
f 219/3/5 217/3/5 216/3/5
f 219/3/5 218/3/5 217/3/5
f 220/3/5 218/3/5 219/3/5
f 221/3/6 222/3/6 223/3/6
f 223/3/6 222/3/6 224/3/6
f 224/3/6 222/3/6 225/3/6
f 224/1/6 225/1/6 227/1/6
f 226/1/6 227/1/6 228/1/6
f 227/1/6 225/1/6 229/1/6
f 228/1/6 227/1/6 229/1/6
f 229/1/6 225/1/6 231/1/6
f 231/1/6 225/1/6 232/1/6
f 230/3/6 231/3/6 233/3/6
f 231/3/6 232/3/6 233/3/6
f 233/3/6 232/3/6 234/3/6
f 235/3/6 236/3/6 237/3/6
f 237/3/6 236/3/6 238/3/6
f 239/3/6 240/3/6 241/3/6
f 241/3/6 240/3/6 242/3/6
