# MagicaVoxel @ Ephtracy

# group
o 

# material
mtllib Gun Model-1.mtl
usemtl palette

# normals
vn -1 0 0
vn 1 0 0
vn 0 0 1
vn 0 0 -1
vn 0 -1 0
vn 0 1 0

# texcoords
vt 0.306641 0.5
vt 0.974609 0.5
vt 0.978516 0.5

# verts
v -1.7 0.3 0
v -1.7 0.3 -0.1
v -1.7 0.4 0
v -1.7 0.4 -0.1
v -1.7 0.5 0
v -1.7 0.5 -0.1
v -1.7 0.6 0
v -1.7 0.6 -0.1
v -1.7 0.7 0
v -1.7 0.7 -0.1
v -1.7 0.8 0
v -1.7 0.8 -0.1
v -1.6 0.3 0.1
v -1.6 0.3 0
v -1.6 0.3 -0.1
v -1.6 0.3 -0.2
v -1.6 0.4 0
v -1.6 0.4 -0.1
v -1.6 0.5 0
v -1.6 0.5 -0.1
v -1.6 0.6 0
v -1.6 0.6 -0.1
v -1.6 0.7 0
v -1.6 0.7 -0.1
v -1.6 0.8 0.1
v -1.6 0.8 0
v -1.6 0.8 -0.1
v -1.6 0.8 -0.2
v -1.2 0.5 0.1
v -1.2 0.5 0
v -1.2 0.5 -0.1
v -1.2 0.5 -0.2
v -1.2 0.6 0.1
v -1.2 0.6 0
v -1.2 0.6 -0.1
v -1.2 0.6 -0.2
v -0.9 0.4 0.1
v -0.9 0.4 -0.2
v -0.9 0.6 0.1
v -0.9 0.6 0
v -0.9 0.6 -0.1
v -0.9 0.6 -0.2
v -0.7 0 0.1
v -0.7 0 0
v -0.7 0 -0.1
v -0.7 0 -0.2
v -0.7 0.4 0.1
v -0.7 0.4 0
v -0.7 0.4 -0.1
v -0.7 0.4 -0.2
v -0.6 0.4 0.1
v -0.6 0.4 0
v -0.6 0.4 -0.1
v -0.6 0.4 -0.2
v -0.6 0.5 0.1
v -0.6 0.5 0
v -0.6 0.5 -0.1
v -0.6 0.5 -0.2
v -0.5 0.6 0
v -0.5 0.6 -0.1
v -0.5 0.7 0
v -0.5 0.7 -0.1
v -0.4 0.6 0.1
v -0.4 0.6 0
v -0.4 0.6 -0.1
v -0.4 0.6 -0.2
v -0.4 0.7 0.1
v -0.4 0.7 0
v -0.4 0.7 -0.1
v -0.4 0.7 -0.2
v -0.2 0.8 0.1
v -0.2 0.8 -0.2
v -0.2 0.9 0.1
v -0.2 0.9 -0.2
v -0.0999999 0.4 0.2
v -0.0999999 0.4 -0.3
v -0.0999999 0.8 0.1
v -0.0999999 0.8 -0.2
v -0.0999999 0.9 0.2
v -0.0999999 0.9 0.1
v -0.0999999 0.9 -0.2
v -0.0999999 0.9 -0.3
v 0.5 0.3 0.3
v 0.5 0.3 -0.4
v 0.5 0.4 0.3
v 0.5 0.4 0.2
v 0.5 0.4 -0.3
v 0.5 0.4 -0.4
v 0.5 0.6 0.2
v 0.5 0.6 0.1
v 0.5 0.6 -0.2
v 0.5 0.6 -0.3
v 0.5 0.8 0.2
v 0.5 0.8 0.1
v 0.5 0.8 -0.2
v 0.5 0.8 -0.3
v 0.6 0.4 0.3
v 0.6 0.4 0.2
v 0.6 0.4 -0.3
v 0.6 0.4 -0.4
v 0.6 0.5 0.3
v 0.6 0.5 0.2
v 0.6 0.5 -0.3
v 0.6 0.5 -0.4
v 0.7 0.6 0.2
v 0.7 0.6 0.1
v 0.7 0.6 -0.2
v 0.7 0.6 -0.3
v 0.7 0.8 0.2
v 0.7 0.8 0.1
v 0.7 0.8 -0.2
v 0.7 0.8 -0.3
v 0.9 0.6 0.2
v 0.9 0.6 0.1
v 0.9 0.6 -0.2
v 0.9 0.6 -0.3
v 0.9 0.8 0.2
v 0.9 0.8 0.1
v 0.9 0.8 -0.2
v 0.9 0.8 -0.3
v 1.3 0.4 0.2
v 1.3 0.4 -0.3
v 1.3 0.9 0.2
v 1.3 0.9 -0.3
v -1.5 0.5 0.1
v -1.5 0.5 0
v -1.5 0.5 -0.1
v -1.5 0.5 -0.2
v -1.5 0.6 0.1
v -1.5 0.6 0
v -1.5 0.6 -0.1
v -1.5 0.6 -0.2
v -1.2 0.3 0.1
v -1.2 0.3 0
v -1.2 0.3 -0.1
v -1.2 0.3 -0.2
v -1.2 0.4 0.1
v -1.2 0.4 0
v -1.2 0.4 -0.1
v -1.2 0.4 -0.2
v -1.1 0.4 0.1
v -1.1 0.4 0
v -1.1 0.4 -0.1
v -1.1 0.4 -0.2
v -1.1 0.5 0.1
v -1.1 0.5 0
v -1.1 0.5 -0.1
v -1.1 0.5 -0.2
v -1 0.5 0.1
v -1 0.5 0
v -1 0.5 -0.1
v -1 0.5 -0.2
v -1 0.6 0.1
v -1 0.6 0
v -1 0.6 -0.1
v -1 0.6 -0.2
v -0.7 0.4 0.1
v -0.7 0.4 0
v -0.7 0.4 -0.1
v -0.7 0.4 -0.2
v -0.7 0.5 0.1
v -0.7 0.5 -0.2
v -0.7 0.6 0.1
v -0.7 0.6 0
v -0.7 0.6 -0.1
v -0.7 0.6 -0.2
v -0.7 0.7 0.1
v -0.7 0.7 0
v -0.7 0.7 -0.1
v -0.7 0.7 -0.2
v -0.6 0.6 0
v -0.6 0.6 -0.1
v -0.6 0.7 0
v -0.6 0.7 -0.1
v -0.4 0.1 0.1
v -0.4 0.1 0
v -0.4 0.1 -0.1
v -0.4 0.1 -0.2
v -0.4 0.2 0.1
v -0.4 0.2 0
v -0.4 0.2 -0.1
v -0.4 0.2 -0.2
v -0.3 0 0.1
v -0.3 0 0
v -0.3 0 -0.1
v -0.3 0 -0.2
v -0.3 0.1 0.1
v -0.3 0.1 0
v -0.3 0.1 -0.1
v -0.3 0.1 -0.2
v -0.3 0.2 0.1
v -0.3 0.2 0
v -0.3 0.2 -0.1
v -0.3 0.2 -0.2
v -0.3 0.4 0.1
v -0.3 0.4 0
v -0.3 0.4 -0.1
v -0.3 0.4 -0.2
v -0.2 0.4 0.1
v -0.2 0.4 -0.2
v -0.2 0.8 0.1
v -0.2 0.8 -0.2
v 0.4 0.6 0.2
v 0.4 0.6 0.1
v 0.4 0.6 -0.2
v 0.4 0.6 -0.3
v 0.4 0.8 0.2
v 0.4 0.8 0.1
v 0.4 0.8 -0.2
v 0.4 0.8 -0.3
v 0.6 0.6 0.2
v 0.6 0.6 0.1
v 0.6 0.6 -0.2
v 0.6 0.6 -0.3
v 0.6 0.8 0.2
v 0.6 0.8 0.1
v 0.6 0.8 -0.2
v 0.6 0.8 -0.3
v 0.8 0.6 0.2
v 0.8 0.6 0.1
v 0.8 0.6 -0.2
v 0.8 0.6 -0.3
v 0.8 0.8 0.2
v 0.8 0.8 0.1
v 0.8 0.8 -0.2
v 0.8 0.8 -0.3
v 1.1 0.3 0.3
v 1.1 0.3 -0.4
v 1.1 0.4 0.2
v 1.1 0.4 -0.3
v 1.1 0.5 0.3
v 1.1 0.5 0.2
v 1.1 0.5 -0.3
v 1.1 0.5 -0.4
v 1.2 0.4 0.2
v 1.2 0.4 -0.3
v 1.2 0.9 0.2
v 1.2 0.9 -0.3
v 1.4 0.5 0.1
v 1.4 0.5 -0.2
v 1.4 0.8 0.1
v 1.4 0.8 -0.2
v 1.6 0.4 0.2
v 1.6 0.4 -0.3
v 1.6 0.5 0.1
v 1.6 0.5 -0.2
v 1.6 0.8 0.1
v 1.6 0.8 -0.2
v 1.6 0.9 0.2
v 1.6 0.9 -0.3
v 0.5 0.3 0.3
v 0.5 0.4 0.3
v 0.6 0.4 0.3
v 0.6 0.5 0.3
v 1.1 0.3 0.3
v 1.1 0.5 0.3
v -0.0999999 0.4 0.2
v -0.0999999 0.9 0.2
v 0.4 0.6 0.2
v 0.4 0.8 0.2
v 0.5 0.4 0.2
v 0.5 0.6 0.2
v 0.5 0.8 0.2
v 0.6 0.4 0.2
v 0.6 0.5 0.2
v 0.6 0.6 0.2
v 0.6 0.8 0.2
v 0.7 0.6 0.2
v 0.7 0.8 0.2
v 0.8 0.6 0.2
v 0.8 0.8 0.2
v 0.9 0.6 0.2
v 0.9 0.8 0.2
v 1.1 0.4 0.2
v 1.1 0.5 0.2
v 1.2 0.4 0.2
v 1.2 0.9 0.2
v 1.3 0.4 0.2
v 1.3 0.9 0.2
v 1.6 0.4 0.2
v 1.6 0.9 0.2
v -1.6 0.3 0.1
v -1.6 0.8 0.1
v -1.5 0.5 0.1
v -1.5 0.6 0.1
v -1.2 0.3 0.1
v -1.2 0.4 0.1
v -1.2 0.5 0.1
v -1.2 0.6 0.1
v -1.1 0.4 0.1
v -1.1 0.5 0.1
v -1 0.5 0.1
v -1 0.6 0.1
v -0.9 0.4 0.1
v -0.9 0.6 0.1
v -0.9 0.8 0.1
v -0.7 0 0.1
v -0.7 0.4 0.1
v -0.7 0.5 0.1
v -0.7 0.6 0.1
v -0.7 0.7 0.1
v -0.6 0.4 0.1
v -0.6 0.5 0.1
v -0.4 0.1 0.1
v -0.4 0.2 0.1
v -0.4 0.6 0.1
v -0.4 0.7 0.1
v -0.3 0 0.1
v -0.3 0.1 0.1
v -0.3 0.2 0.1
v -0.3 0.4 0.1
v -0.3 0.5 0.1
v -0.2 0.4 0.1
v -0.2 0.8 0.1
v -0.2 0.9 0.1
v -0.0999999 0.8 0.1
v -0.0999999 0.9 0.1
v 0.4 0.6 0.1
v 0.4 0.8 0.1
v 0.5 0.6 0.1
v 0.5 0.8 0.1
v 0.6 0.6 0.1
v 0.6 0.8 0.1
v 0.7 0.6 0.1
v 0.7 0.8 0.1
v 0.8 0.6 0.1
v 0.8 0.8 0.1
v 0.9 0.6 0.1
v 0.9 0.8 0.1
v -1.7 0.3 0
v -1.7 0.4 0
v -1.7 0.5 0
v -1.7 0.6 0
v -1.7 0.7 0
v -1.7 0.8 0
v -1.6 0.3 0
v -1.6 0.4 0
v -1.6 0.5 0
v -1.6 0.6 0
v -1.6 0.7 0
v -1.6 0.8 0
v -0.7 0.6 0
v -0.7 0.7 0
v -0.6 0.6 0
v -0.6 0.7 0
v -0.5 0.6 0
v -0.5 0.7 0
v -0.4 0.6 0
v -0.4 0.7 0
v 1.4 0.5 -0.2
v 1.4 0.8 -0.2
v 1.6 0.5 -0.2
v 1.6 0.8 -0.2
v 1.4 0.5 0.1
v 1.4 0.8 0.1
v 1.6 0.5 0.1
v 1.6 0.8 0.1
v -1.7 0.3 -0.1
v -1.7 0.4 -0.1
v -1.7 0.5 -0.1
v -1.7 0.6 -0.1
v -1.7 0.7 -0.1
v -1.7 0.8 -0.1
v -1.6 0.3 -0.1
v -1.6 0.4 -0.1
v -1.6 0.5 -0.1
v -1.6 0.6 -0.1
v -1.6 0.7 -0.1
v -1.6 0.8 -0.1
v -0.7 0.6 -0.1
v -0.7 0.7 -0.1
v -0.6 0.6 -0.1
v -0.6 0.7 -0.1
v -0.5 0.6 -0.1
v -0.5 0.7 -0.1
v -0.4 0.6 -0.1
v -0.4 0.7 -0.1
v -1.6 0.3 -0.2
v -1.6 0.8 -0.2
v -1.5 0.5 -0.2
v -1.5 0.6 -0.2
v -1.2 0.3 -0.2
v -1.2 0.4 -0.2
v -1.2 0.5 -0.2
v -1.2 0.6 -0.2
v -1.1 0.4 -0.2
v -1.1 0.5 -0.2
v -1 0.5 -0.2
v -1 0.6 -0.2
v -0.9 0.4 -0.2
v -0.9 0.6 -0.2
v -0.9 0.8 -0.2
v -0.7 0 -0.2
v -0.7 0.4 -0.2
v -0.7 0.5 -0.2
v -0.7 0.6 -0.2
v -0.7 0.7 -0.2
v -0.6 0.4 -0.2
v -0.6 0.5 -0.2
v -0.4 0.1 -0.2
v -0.4 0.2 -0.2
v -0.4 0.6 -0.2
v -0.4 0.7 -0.2
v -0.3 0 -0.2
v -0.3 0.1 -0.2
v -0.3 0.2 -0.2
v -0.3 0.4 -0.2
v -0.3 0.5 -0.2
v -0.2 0.4 -0.2
v -0.2 0.8 -0.2
v -0.2 0.9 -0.2
v -0.0999999 0.8 -0.2
v -0.0999999 0.9 -0.2
v 0.4 0.6 -0.2
v 0.4 0.8 -0.2
v 0.5 0.6 -0.2
v 0.5 0.8 -0.2
v 0.6 0.6 -0.2
v 0.6 0.8 -0.2
v 0.7 0.6 -0.2
v 0.7 0.8 -0.2
v 0.8 0.6 -0.2
v 0.8 0.8 -0.2
v 0.9 0.6 -0.2
v 0.9 0.8 -0.2
v -0.0999999 0.4 -0.3
v -0.0999999 0.9 -0.3
v 0.4 0.6 -0.3
v 0.4 0.8 -0.3
v 0.5 0.4 -0.3
v 0.5 0.6 -0.3
v 0.5 0.8 -0.3
v 0.6 0.4 -0.3
v 0.6 0.5 -0.3
v 0.6 0.6 -0.3
v 0.6 0.8 -0.3
v 0.7 0.6 -0.3
v 0.7 0.8 -0.3
v 0.8 0.6 -0.3
v 0.8 0.8 -0.3
v 0.9 0.6 -0.3
v 0.9 0.8 -0.3
v 1.1 0.4 -0.3
v 1.1 0.5 -0.3
v 1.2 0.4 -0.3
v 1.2 0.9 -0.3
v 1.3 0.4 -0.3
v 1.3 0.9 -0.3
v 1.6 0.4 -0.3
v 1.6 0.9 -0.3
v 0.5 0.3 -0.4
v 0.5 0.4 -0.4
v 0.6 0.4 -0.4
v 0.6 0.5 -0.4
v 1.1 0.3 -0.4
v 1.1 0.5 -0.4
v -0.7 0 0.1
v -0.3 0 0.1
v -0.7 0 0
v -0.3 0 0
v -0.7 0 -0.1
v -0.3 0 -0.1
v -0.7 0 -0.2
v -0.3 0 -0.2
v -0.4 0.2 0.1
v -0.3 0.2 0.1
v -0.4 0.2 0
v -0.3 0.2 0
v -0.4 0.2 -0.1
v -0.3 0.2 -0.1
v -0.4 0.2 -0.2
v -0.3 0.2 -0.2
v 0.5 0.3 0.3
v 1.1 0.3 0.3
v -1.6 0.3 0.1
v -1.2 0.3 0.1
v -1.7 0.3 0
v -1.6 0.3 0
v -1.5 0.3 0
v -1.2 0.3 0
v -1.7 0.3 -0.1
v -1.6 0.3 -0.1
v -1.5 0.3 -0.1
v -1.2 0.3 -0.1
v -1.6 0.3 -0.2
v -1.2 0.3 -0.2
v 0.5 0.3 -0.4
v 1.1 0.3 -0.4
v -0.0999999 0.4 0.2
v 0.5 0.4 0.2
v 1.1 0.4 0.2
v 1.2 0.4 0.2
v 1.3 0.4 0.2
v 1.6 0.4 0.2
v -1.2 0.4 0.1
v -1.1 0.4 0.1
v -0.9 0.4 0.1
v -0.7 0.4 0.1
v -0.3 0.4 0.1
v -0.2 0.4 0.1
v -1.2 0.4 0
v -1.1 0.4 0
v -0.7 0.4 0
v -0.3 0.4 0
v -1.2 0.4 -0.1
v -1.1 0.4 -0.1
v -0.7 0.4 -0.1
v -0.3 0.4 -0.1
v -1.2 0.4 -0.2
v -1.1 0.4 -0.2
v -0.9 0.4 -0.2
v -0.7 0.4 -0.2
v -0.3 0.4 -0.2
v -0.2 0.4 -0.2
v -0.0999999 0.4 -0.3
v 0.5 0.4 -0.3
v 1.1 0.4 -0.3
v 1.2 0.4 -0.3
v 1.3 0.4 -0.3
v 1.6 0.4 -0.3
v -1.1 0.5 0.1
v -1 0.5 0.1
v -0.7 0.5 0.1
v -0.6 0.5 0.1
v -1.7 0.5 0
v -1.6 0.5 0
v -1.1 0.5 0
v -1 0.5 0
v -0.6 0.5 0
v -1.7 0.5 -0.1
v -1.6 0.5 -0.1
v -1.1 0.5 -0.1
v -1 0.5 -0.1
v -0.6 0.5 -0.1
v -1.1 0.5 -0.2
v -1 0.5 -0.2
v -0.7 0.5 -0.2
v -0.6 0.5 -0.2
v -1.5 0.6 0.1
v -1.2 0.6 0.1
v -1 0.6 0.1
v -0.9 0.6 0.1
v -1.5 0.6 0
v -1.2 0.6 0
v -1 0.6 0
v -0.9 0.6 0
v -1.5 0.6 -0.1
v -1.2 0.6 -0.1
v -1 0.6 -0.1
v -0.9 0.6 -0.1
v -1.5 0.6 -0.2
v -1.2 0.6 -0.2
v -1 0.6 -0.2
v -0.9 0.6 -0.2
v -0.7 0.7 0.1
v -0.4 0.7 0.1
v -1.7 0.7 0
v -1.6 0.7 0
v -0.7 0.7 0
v -0.6 0.7 0
v -0.5 0.7 0
v -0.4 0.7 0
v -1.7 0.7 -0.1
v -1.6 0.7 -0.1
v -0.7 0.7 -0.1
v -0.6 0.7 -0.1
v -0.5 0.7 -0.1
v -0.4 0.7 -0.1
v -0.7 0.7 -0.2
v -0.4 0.7 -0.2
v 0.4 0.8 0.2
v 0.5 0.8 0.2
v 0.6 0.8 0.2
v 0.7 0.8 0.2
v 0.8 0.8 0.2
v 0.9 0.8 0.2
v -0.2 0.8 0.1
v -0.0999999 0.8 0.1
v 0.4 0.8 0.1
v 0.5 0.8 0.1
v 0.6 0.8 0.1
v 0.7 0.8 0.1
v 0.8 0.8 0.1
v 0.9 0.8 0.1
v 1.4 0.8 0.1
v 1.6 0.8 0.1
v -0.2 0.8 -0.2
v -0.0999999 0.8 -0.2
v 0.4 0.8 -0.2
v 0.5 0.8 -0.2
v 0.6 0.8 -0.2
v 0.7 0.8 -0.2
v 0.8 0.8 -0.2
v 0.9 0.8 -0.2
v 1.4 0.8 -0.2
v 1.6 0.8 -0.2
v 0.4 0.8 -0.3
v 0.5 0.8 -0.3
v 0.6 0.8 -0.3
v 0.7 0.8 -0.3
v 0.8 0.8 -0.3
v 0.9 0.8 -0.3
v -0.4 0.1 0.1
v -0.3 0.1 0.1
v -0.4 0.1 0
v -0.3 0.1 0
v -0.4 0.1 -0.1
v -0.3 0.1 -0.1
v -0.4 0.1 -0.2
v -0.3 0.1 -0.2
v 0.5 0.4 0.3
v 0.6 0.4 0.3
v 0.5 0.4 0.2
v 0.6 0.4 0.2
v -0.7 0.4 0.1
v -0.6 0.4 0.1
v -1.7 0.4 0
v -1.6 0.4 0
v -0.7 0.4 0
v -0.6 0.4 0
v -1.7 0.4 -0.1
v -1.6 0.4 -0.1
v -0.7 0.4 -0.1
v -0.6 0.4 -0.1
v -0.7 0.4 -0.2
v -0.6 0.4 -0.2
v 0.5 0.4 -0.3
v 0.6 0.4 -0.3
v 0.5 0.4 -0.4
v 0.6 0.4 -0.4
v 0.6 0.5 0.3
v 1.1 0.5 0.3
v 0.6 0.5 0.2
v 1.1 0.5 0.2
v -1.5 0.5 0.1
v -1.2 0.5 0.1
v 1.4 0.5 0.1
v 1.6 0.5 0.1
v -1.5 0.5 0
v -1.2 0.5 0
v -1.5 0.5 -0.1
v -1.2 0.5 -0.1
v -1.5 0.5 -0.2
v -1.2 0.5 -0.2
v 1.4 0.5 -0.2
v 1.6 0.5 -0.2
v 0.6 0.5 -0.3
v 1.1 0.5 -0.3
v 0.6 0.5 -0.4
v 1.1 0.5 -0.4
v 0.4 0.6 0.2
v 0.5 0.6 0.2
v 0.6 0.6 0.2
v 0.7 0.6 0.2
v 0.8 0.6 0.2
v 0.9 0.6 0.2
v -0.7 0.6 0.1
v -0.4 0.6 0.1
v 0.4 0.6 0.1
v 0.5 0.6 0.1
v 0.6 0.6 0.1
v 0.7 0.6 0.1
v 0.8 0.6 0.1
v 0.9 0.6 0.1
v -1.7 0.6 0
v -1.6 0.6 0
v -0.7 0.6 0
v -0.6 0.6 0
v -0.5 0.6 0
v -0.4 0.6 0
v -1.7 0.6 -0.1
v -1.6 0.6 -0.1
v -0.7 0.6 -0.1
v -0.6 0.6 -0.1
v -0.5 0.6 -0.1
v -0.4 0.6 -0.1
v -0.7 0.6 -0.2
v -0.4 0.6 -0.2
v 0.4 0.6 -0.2
v 0.5 0.6 -0.2
v 0.6 0.6 -0.2
v 0.7 0.6 -0.2
v 0.8 0.6 -0.2
v 0.9 0.6 -0.2
v 0.4 0.6 -0.3
v 0.5 0.6 -0.3
v 0.6 0.6 -0.3
v 0.7 0.6 -0.3
v 0.8 0.6 -0.3
v 0.9 0.6 -0.3
v -1.6 0.8 0.1
v -0.9 0.8 0.1
v -0.2 0.8 0.1
v -1.7 0.8 0
v -1.6 0.8 0
v -1.5 0.8 0
v -0.9 0.8 0
v -1.7 0.8 -0.1
v -1.6 0.8 -0.1
v -1.5 0.8 -0.1
v -0.9 0.8 -0.1
v -1.6 0.8 -0.2
v -0.9 0.8 -0.2
v -0.2 0.8 -0.2
v -0.0999999 0.9 0.2
v 1.2 0.9 0.2
v 1.3 0.9 0.2
v 1.6 0.9 0.2
v -0.2 0.9 0.1
v -0.0999999 0.9 0.1
v -0.2 0.9 -0.2
v -0.0999999 0.9 -0.2
v -0.0999999 0.9 -0.3
v 1.2 0.9 -0.3
v 1.3 0.9 -0.3
v 1.6 0.9 -0.3

# faces
f 3/3/1 2/3/1 1/3/1
f 4/3/1 2/3/1 3/3/1
f 7/3/1 6/3/1 5/3/1
f 8/3/1 6/3/1 7/3/1
f 11/3/1 10/3/1 9/3/1
f 12/3/1 10/3/1 11/3/1
f 17/3/1 14/3/1 13/3/1
f 18/3/1 16/3/1 15/3/1
f 19/3/1 17/3/1 13/3/1
f 19/1/1 18/1/1 17/1/1
f 20/3/1 16/3/1 18/3/1
f 20/1/1 18/1/1 19/1/1
f 21/3/1 19/3/1 13/3/1
f 22/3/1 16/3/1 20/3/1
f 23/3/1 21/3/1 13/3/1
f 23/1/1 22/1/1 21/1/1
f 24/3/1 16/3/1 22/3/1
f 24/1/1 22/1/1 23/1/1
f 25/3/1 23/3/1 13/3/1
f 26/3/1 23/3/1 25/3/1
f 27/3/1 16/3/1 24/3/1
f 28/3/1 16/3/1 27/3/1
f 33/3/1 30/3/1 29/3/1
f 34/1/1 31/1/1 30/1/1
f 34/3/1 30/3/1 33/3/1
f 35/3/1 32/3/1 31/3/1
f 35/1/1 31/1/1 34/1/1
f 36/3/1 32/3/1 35/3/1
f 39/2/1 38/2/1 37/2/1
f 40/2/1 38/2/1 39/2/1
f 41/2/1 38/2/1 40/2/1
f 42/2/1 38/2/1 41/2/1
f 47/3/1 44/3/1 43/3/1
f 48/1/1 45/1/1 44/1/1
f 48/3/1 44/3/1 47/3/1
f 49/3/1 46/3/1 45/3/1
f 49/1/1 45/1/1 48/1/1
f 50/3/1 46/3/1 49/3/1
f 55/3/1 52/3/1 51/3/1
f 56/1/1 53/1/1 52/1/1
f 56/3/1 52/3/1 55/3/1
f 57/3/1 54/3/1 53/3/1
f 57/1/1 53/1/1 56/1/1
f 58/3/1 54/3/1 57/3/1
f 61/2/1 60/2/1 59/2/1
f 62/2/1 60/2/1 61/2/1
f 67/2/1 64/2/1 63/2/1
f 68/2/1 64/2/1 67/2/1
f 69/2/1 66/2/1 65/2/1
f 70/2/1 66/2/1 69/2/1
f 73/2/1 72/2/1 71/2/1
f 74/2/1 72/2/1 73/2/1
f 77/2/1 76/2/1 75/2/1
f 78/2/1 76/2/1 77/2/1
f 79/2/1 77/2/1 75/2/1
f 80/2/1 77/2/1 79/2/1
f 81/2/1 76/2/1 78/2/1
f 82/2/1 76/2/1 81/2/1
f 85/3/1 84/3/1 83/3/1
f 86/3/1 84/3/1 85/3/1
f 87/3/1 84/3/1 86/3/1
f 88/3/1 84/3/1 87/3/1
f 93/2/1 90/2/1 89/2/1
f 94/2/1 90/2/1 93/2/1
f 95/2/1 92/2/1 91/2/1
f 96/2/1 92/2/1 95/2/1
f 101/3/1 98/3/1 97/3/1
f 102/3/1 98/3/1 101/3/1
f 103/3/1 100/3/1 99/3/1
f 104/3/1 100/3/1 103/3/1
f 109/2/1 106/2/1 105/2/1
f 110/2/1 106/2/1 109/2/1
f 111/2/1 108/2/1 107/2/1
f 112/2/1 108/2/1 111/2/1
f 117/2/1 114/2/1 113/2/1
f 118/2/1 114/2/1 117/2/1
f 119/2/1 116/2/1 115/2/1
f 120/2/1 116/2/1 119/2/1
f 123/2/1 122/2/1 121/2/1
f 124/2/1 122/2/1 123/2/1
f 125/3/2 126/3/2 129/3/2
f 126/1/2 127/1/2 130/1/2
f 129/3/2 126/3/2 130/3/2
f 127/3/2 128/3/2 131/3/2
f 130/1/2 127/1/2 131/1/2
f 131/3/2 128/3/2 132/3/2
f 133/3/2 134/3/2 137/3/2
f 134/2/2 135/2/2 138/2/2
f 137/3/2 134/3/2 138/3/2
f 135/3/2 136/3/2 139/3/2
f 138/2/2 135/2/2 139/2/2
f 139/3/2 136/3/2 140/3/2
f 141/3/2 142/3/2 145/3/2
f 142/2/2 143/2/2 146/2/2
f 145/3/2 142/3/2 146/3/2
f 143/3/2 144/3/2 147/3/2
f 146/2/2 143/2/2 147/2/2
f 147/3/2 144/3/2 148/3/2
f 149/3/2 150/3/2 153/3/2
f 150/2/2 151/2/2 154/2/2
f 153/3/2 150/3/2 154/3/2
f 151/3/2 152/3/2 155/3/2
f 154/2/2 151/2/2 155/2/2
f 155/3/2 152/3/2 156/3/2
f 157/2/2 158/2/2 161/2/2
f 159/2/2 160/2/2 161/2/2
f 158/2/2 159/2/2 161/2/2
f 161/2/2 160/2/2 162/2/2
f 163/2/2 164/2/2 167/2/2
f 167/2/2 164/2/2 168/2/2
f 165/2/2 166/2/2 169/2/2
f 169/2/2 166/2/2 170/2/2
f 171/2/2 172/2/2 173/2/2
f 173/2/2 172/2/2 174/2/2
f 175/3/2 176/3/2 179/3/2
f 176/1/2 177/1/2 180/1/2
f 179/3/2 176/3/2 180/3/2
f 177/3/2 178/3/2 181/3/2
f 180/1/2 177/1/2 181/1/2
f 181/3/2 178/3/2 182/3/2
f 183/3/2 184/3/2 187/3/2
f 184/1/2 185/1/2 188/1/2
f 187/3/2 184/3/2 188/3/2
f 185/3/2 186/3/2 189/3/2
f 188/1/2 185/1/2 189/1/2
f 189/3/2 186/3/2 190/3/2
f 191/3/2 192/3/2 195/3/2
f 192/1/2 193/1/2 196/1/2
f 195/3/2 192/3/2 196/3/2
f 193/3/2 194/3/2 197/3/2
f 196/1/2 193/1/2 197/1/2
f 197/3/2 194/3/2 198/3/2
f 199/2/2 200/2/2 201/2/2
f 201/2/2 200/2/2 202/2/2
f 203/2/2 204/2/2 207/2/2
f 207/2/2 204/2/2 208/2/2
f 205/2/2 206/2/2 209/2/2
f 209/2/2 206/2/2 210/2/2
f 211/2/2 212/2/2 215/2/2
f 215/2/2 212/2/2 216/2/2
f 213/2/2 214/2/2 217/2/2
f 217/2/2 214/2/2 218/2/2
f 219/2/2 220/2/2 223/2/2
f 223/2/2 220/2/2 224/2/2
f 221/2/2 222/2/2 225/2/2
f 225/2/2 222/2/2 226/2/2
f 227/3/2 228/3/2 229/3/2
f 229/3/2 228/3/2 230/3/2
f 227/3/2 229/3/2 231/3/2
f 231/3/2 229/3/2 232/3/2
f 230/3/2 228/3/2 233/3/2
f 233/3/2 228/3/2 234/3/2
f 235/2/2 236/2/2 237/2/2
f 237/2/2 236/2/2 238/2/2
f 239/2/2 240/2/2 241/2/2
f 241/2/2 240/2/2 242/2/2
f 243/2/2 244/2/2 245/2/2
f 245/2/2 244/2/2 246/2/2
f 243/2/2 245/2/2 247/2/2
f 246/2/2 244/2/2 248/2/2
f 243/2/2 247/2/2 249/2/2
f 247/2/2 248/2/2 249/2/2
f 248/2/2 244/2/2 250/2/2
f 249/2/2 248/2/2 250/2/2
f 253/3/3 252/3/3 251/3/3
f 255/3/3 253/3/3 251/3/3
f 255/3/3 254/3/3 253/3/3
f 256/3/3 254/3/3 255/3/3
f 259/2/3 258/2/3 257/2/3
f 260/2/3 258/2/3 259/2/3
f 261/2/3 259/2/3 257/2/3
f 262/2/3 259/2/3 261/2/3
f 263/2/3 258/2/3 260/2/3
f 264/2/3 262/2/3 261/2/3
f 264/2/3 263/2/3 262/2/3
f 265/2/3 263/2/3 264/2/3
f 266/2/3 263/2/3 265/2/3
f 267/2/3 258/2/3 263/2/3
f 267/2/3 263/2/3 266/2/3
f 268/2/3 266/2/3 265/2/3
f 269/2/3 258/2/3 267/2/3
f 270/2/3 268/2/3 265/2/3
f 270/2/3 269/2/3 268/2/3
f 271/2/3 258/2/3 269/2/3
f 271/2/3 269/2/3 270/2/3
f 272/2/3 270/2/3 265/2/3
f 273/2/3 258/2/3 271/2/3
f 275/2/3 272/2/3 265/2/3
f 275/2/3 273/2/3 272/2/3
f 276/2/3 275/2/3 274/2/3
f 277/2/3 258/2/3 273/2/3
f 277/2/3 275/2/3 276/2/3
f 277/2/3 273/2/3 275/2/3
f 280/2/3 279/2/3 278/2/3
f 281/2/3 279/2/3 280/2/3
f 284/3/3 283/3/3 282/3/3
f 285/3/3 283/3/3 284/3/3
f 286/3/3 284/3/3 282/3/3
f 287/3/3 284/3/3 286/3/3
f 288/3/3 284/3/3 287/3/3
f 289/3/3 283/3/3 285/3/3
f 290/3/3 288/3/3 287/3/3
f 290/3/3 289/3/3 288/3/3
f 291/3/3 289/3/3 290/3/3
f 292/3/3 289/3/3 291/3/3
f 293/3/3 283/3/3 289/3/3
f 293/3/3 289/3/3 292/3/3
f 295/3/3 283/3/3 293/3/3
f 296/3/3 283/3/3 295/3/3
f 298/2/3 295/2/3 294/2/3
f 298/2/3 296/2/3 295/2/3
f 299/2/3 296/2/3 298/2/3
f 300/2/3 296/2/3 299/2/3
f 301/2/3 296/2/3 300/2/3
f 302/3/3 298/3/3 297/3/3
f 303/2/3 300/2/3 299/2/3
f 304/3/3 302/3/3 297/3/3
f 304/3/3 303/3/3 302/3/3
f 305/3/3 303/3/3 304/3/3
f 306/2/3 300/2/3 303/2/3
f 307/2/3 296/2/3 301/2/3
f 308/3/3 304/3/3 297/3/3
f 309/3/3 304/3/3 308/3/3
f 310/3/3 303/3/3 305/3/3
f 311/3/3 303/3/3 310/3/3
f 312/2/3 306/2/3 303/2/3
f 312/3/3 303/3/3 311/3/3
f 312/2/3 307/2/3 306/2/3
f 313/2/3 312/2/3 311/2/3
f 314/2/3 307/2/3 312/2/3
f 314/2/3 312/2/3 313/2/3
f 314/2/3 296/2/3 307/2/3
f 316/2/3 315/2/3 314/2/3
f 317/2/3 315/2/3 316/2/3
f 320/2/3 319/2/3 318/2/3
f 321/2/3 319/2/3 320/2/3
f 324/2/3 323/2/3 322/2/3
f 325/2/3 323/2/3 324/2/3
f 328/2/3 327/2/3 326/2/3
f 329/2/3 327/2/3 328/2/3
f 336/3/3 331/3/3 330/3/3
f 337/3/3 331/3/3 336/3/3
f 338/3/3 333/3/3 332/3/3
f 339/3/3 333/3/3 338/3/3
f 340/3/3 335/3/3 334/3/3
f 341/3/3 335/3/3 340/3/3
f 344/2/3 343/2/3 342/2/3
f 345/2/3 343/2/3 344/2/3
f 348/2/3 347/2/3 346/2/3
f 349/2/3 347/2/3 348/2/3
f 352/2/3 351/2/3 350/2/3
f 353/2/3 351/2/3 352/2/3
f 354/2/4 355/2/4 356/2/4
f 356/2/4 355/2/4 357/2/4
f 358/3/4 359/3/4 364/3/4
f 364/3/4 359/3/4 365/3/4
f 360/3/4 361/3/4 366/3/4
f 366/3/4 361/3/4 367/3/4
f 362/3/4 363/3/4 368/3/4
f 368/3/4 363/3/4 369/3/4
f 370/2/4 371/2/4 372/2/4
f 372/2/4 371/2/4 373/2/4
f 374/2/4 375/2/4 376/2/4
f 376/2/4 375/2/4 377/2/4
f 378/3/4 379/3/4 380/3/4
f 380/3/4 379/3/4 381/3/4
f 378/3/4 380/3/4 382/3/4
f 382/3/4 380/3/4 383/3/4
f 383/3/4 380/3/4 384/3/4
f 381/3/4 379/3/4 385/3/4
f 383/3/4 384/3/4 386/3/4
f 384/3/4 385/3/4 386/3/4
f 386/3/4 385/3/4 387/3/4
f 387/3/4 385/3/4 388/3/4
f 385/3/4 379/3/4 389/3/4
f 388/3/4 385/3/4 389/3/4
f 389/3/4 379/3/4 391/3/4
f 391/3/4 379/3/4 392/3/4
f 390/2/4 391/2/4 394/2/4
f 391/2/4 392/2/4 394/2/4
f 394/2/4 392/2/4 395/2/4
f 395/2/4 392/2/4 396/2/4
f 396/2/4 392/2/4 397/2/4
f 393/3/4 394/3/4 398/3/4
f 395/2/4 396/2/4 399/2/4
f 393/3/4 398/3/4 400/3/4
f 398/3/4 399/3/4 400/3/4
f 400/3/4 399/3/4 401/3/4
f 399/2/4 396/2/4 402/2/4
f 397/2/4 392/2/4 403/2/4
f 393/3/4 400/3/4 404/3/4
f 404/3/4 400/3/4 405/3/4
f 401/3/4 399/3/4 406/3/4
f 406/3/4 399/3/4 407/3/4
f 399/2/4 402/2/4 408/2/4
f 407/3/4 399/3/4 408/3/4
f 402/2/4 403/2/4 408/2/4
f 407/2/4 408/2/4 409/2/4
f 408/2/4 403/2/4 410/2/4
f 409/2/4 408/2/4 410/2/4
f 403/2/4 392/2/4 410/2/4
f 410/2/4 411/2/4 412/2/4
f 412/2/4 411/2/4 413/2/4
f 414/2/4 415/2/4 416/2/4
f 416/2/4 415/2/4 417/2/4
f 418/2/4 419/2/4 420/2/4
f 420/2/4 419/2/4 421/2/4
f 422/2/4 423/2/4 424/2/4
f 424/2/4 423/2/4 425/2/4
f 426/2/4 427/2/4 428/2/4
f 428/2/4 427/2/4 429/2/4
f 426/2/4 428/2/4 430/2/4
f 430/2/4 428/2/4 431/2/4
f 429/2/4 427/2/4 432/2/4
f 430/2/4 431/2/4 433/2/4
f 431/2/4 432/2/4 433/2/4
f 433/2/4 432/2/4 434/2/4
f 434/2/4 432/2/4 435/2/4
f 432/2/4 427/2/4 436/2/4
f 435/2/4 432/2/4 436/2/4
f 434/2/4 435/2/4 437/2/4
f 436/2/4 427/2/4 438/2/4
f 434/2/4 437/2/4 439/2/4
f 437/2/4 438/2/4 439/2/4
f 438/2/4 427/2/4 440/2/4
f 439/2/4 438/2/4 440/2/4
f 434/2/4 439/2/4 441/2/4
f 440/2/4 427/2/4 442/2/4
f 434/2/4 441/2/4 444/2/4
f 441/2/4 442/2/4 444/2/4
f 443/2/4 444/2/4 445/2/4
f 442/2/4 427/2/4 446/2/4
f 445/2/4 444/2/4 446/2/4
f 444/2/4 442/2/4 446/2/4
f 447/2/4 448/2/4 449/2/4
f 449/2/4 448/2/4 450/2/4
f 451/3/4 452/3/4 453/3/4
f 451/3/4 453/3/4 455/3/4
f 453/3/4 454/3/4 455/3/4
f 455/3/4 454/3/4 456/3/4
f 459/3/5 458/3/5 457/3/5
f 460/3/5 458/3/5 459/3/5
f 461/1/5 460/1/5 459/1/5
f 462/1/5 460/1/5 461/1/5
f 463/3/5 462/3/5 461/3/5
f 464/3/5 462/3/5 463/3/5
f 467/3/5 466/3/5 465/3/5
f 468/3/5 466/3/5 467/3/5
f 469/1/5 468/1/5 467/1/5
f 470/1/5 468/1/5 469/1/5
f 471/3/5 470/3/5 469/3/5
f 472/3/5 470/3/5 471/3/5
f 478/3/5 476/3/5 475/3/5
f 479/3/5 476/3/5 478/3/5
f 480/3/5 476/3/5 479/3/5
f 481/3/5 478/3/5 477/3/5
f 482/1/5 479/1/5 478/1/5
f 482/3/5 478/3/5 481/3/5
f 483/2/5 480/2/5 479/2/5
f 483/1/5 479/1/5 482/1/5
f 484/2/5 480/2/5 483/2/5
f 485/3/5 483/3/5 482/3/5
f 485/3/5 484/3/5 483/3/5
f 486/3/5 484/3/5 485/3/5
f 487/3/5 474/3/5 473/3/5
f 488/3/5 474/3/5 487/3/5
f 501/3/5 496/3/5 495/3/5
f 502/3/5 496/3/5 501/3/5
f 503/2/5 498/2/5 497/2/5
f 504/2/5 500/2/5 499/2/5
f 505/2/5 502/2/5 501/2/5
f 506/2/5 502/2/5 505/2/5
f 507/2/5 503/2/5 497/2/5
f 508/2/5 500/2/5 504/2/5
f 509/3/5 506/3/5 505/3/5
f 510/3/5 506/3/5 509/3/5
f 511/2/5 507/2/5 497/2/5
f 512/2/5 507/2/5 511/2/5
f 513/2/5 500/2/5 508/2/5
f 514/2/5 500/2/5 513/2/5
f 515/2/5 490/2/5 489/2/5
f 516/2/5 490/2/5 515/2/5
f 517/2/5 492/2/5 491/2/5
f 518/2/5 492/2/5 517/2/5
f 519/2/5 494/2/5 493/2/5
f 520/2/5 494/2/5 519/2/5
f 527/3/5 522/3/5 521/3/5
f 528/3/5 522/3/5 527/3/5
f 529/2/5 524/2/5 523/2/5
f 530/3/5 526/3/5 525/3/5
f 531/3/5 526/3/5 530/3/5
f 532/2/5 528/2/5 527/2/5
f 533/2/5 528/2/5 532/2/5
f 534/2/5 529/2/5 523/2/5
f 535/3/5 533/3/5 532/3/5
f 536/3/5 533/3/5 535/3/5
f 537/2/5 534/2/5 523/2/5
f 538/2/5 534/2/5 537/2/5
f 543/3/5 540/3/5 539/3/5
f 544/3/5 540/3/5 543/3/5
f 545/3/5 542/3/5 541/3/5
f 546/3/5 542/3/5 545/3/5
f 547/1/5 544/1/5 543/1/5
f 548/1/5 544/1/5 547/1/5
f 549/2/5 546/2/5 545/2/5
f 550/2/5 546/2/5 549/2/5
f 551/3/5 548/3/5 547/3/5
f 552/3/5 548/3/5 551/3/5
f 553/3/5 550/3/5 549/3/5
f 554/3/5 550/3/5 553/3/5
f 559/2/5 556/2/5 555/2/5
f 560/2/5 556/2/5 559/2/5
f 561/2/5 556/2/5 560/2/5
f 562/2/5 556/2/5 561/2/5
f 563/3/5 558/3/5 557/3/5
f 564/3/5 558/3/5 563/3/5
f 566/2/5 561/2/5 560/2/5
f 567/2/5 561/2/5 566/2/5
f 569/2/5 568/2/5 567/2/5
f 569/2/5 567/2/5 566/2/5
f 569/2/5 566/2/5 565/2/5
f 570/2/5 568/2/5 569/2/5
f 579/2/5 572/2/5 571/2/5
f 580/2/5 572/2/5 579/2/5
f 581/2/5 574/2/5 573/2/5
f 582/2/5 574/2/5 581/2/5
f 583/2/5 576/2/5 575/2/5
f 584/2/5 576/2/5 583/2/5
f 587/2/5 578/2/5 577/2/5
f 588/2/5 578/2/5 587/2/5
f 595/2/5 586/2/5 585/2/5
f 596/2/5 586/2/5 595/2/5
f 597/2/5 590/2/5 589/2/5
f 598/2/5 590/2/5 597/2/5
f 599/2/5 592/2/5 591/2/5
f 600/2/5 592/2/5 599/2/5
f 601/2/5 594/2/5 593/2/5
f 602/2/5 594/2/5 601/2/5
f 603/3/6 604/3/6 605/3/6
f 605/3/6 604/3/6 606/3/6
f 605/1/6 606/1/6 607/1/6
f 607/1/6 606/1/6 608/1/6
f 607/3/6 608/3/6 609/3/6
f 609/3/6 608/3/6 610/3/6
f 611/3/6 612/3/6 613/3/6
f 613/3/6 612/3/6 614/3/6
f 615/3/6 616/3/6 619/3/6
f 619/3/6 616/3/6 620/3/6
f 617/3/6 618/3/6 621/3/6
f 621/3/6 618/3/6 622/3/6
f 619/1/6 620/1/6 623/1/6
f 623/1/6 620/1/6 624/1/6
f 623/3/6 624/3/6 625/3/6
f 625/3/6 624/3/6 626/3/6
f 627/3/6 628/3/6 629/3/6
f 629/3/6 628/3/6 630/3/6
f 631/3/6 632/3/6 633/3/6
f 633/3/6 632/3/6 634/3/6
f 635/3/6 636/3/6 639/3/6
f 639/3/6 636/3/6 640/3/6
f 639/1/6 640/1/6 641/1/6
f 641/1/6 640/1/6 642/1/6
f 641/3/6 642/3/6 643/3/6
f 643/3/6 642/3/6 644/3/6
f 637/2/6 638/2/6 645/2/6
f 645/2/6 638/2/6 646/2/6
f 647/3/6 648/3/6 649/3/6
f 649/3/6 648/3/6 650/3/6
f 651/2/6 652/2/6 659/2/6
f 659/2/6 652/2/6 660/2/6
f 653/2/6 654/2/6 661/2/6
f 661/2/6 654/2/6 662/2/6
f 655/2/6 656/2/6 663/2/6
f 663/2/6 656/2/6 664/2/6
f 657/2/6 658/2/6 667/2/6
f 667/2/6 658/2/6 668/2/6
f 668/2/6 658/2/6 669/2/6
f 669/2/6 658/2/6 670/2/6
f 665/3/6 666/3/6 671/3/6
f 671/3/6 666/3/6 672/3/6
f 668/2/6 669/2/6 674/2/6
f 674/2/6 669/2/6 675/2/6
f 675/2/6 676/2/6 677/2/6
f 674/2/6 675/2/6 677/2/6
f 673/2/6 674/2/6 677/2/6
f 677/2/6 676/2/6 678/2/6
f 679/2/6 680/2/6 685/2/6
f 685/2/6 680/2/6 686/2/6
f 681/2/6 682/2/6 687/2/6
f 687/2/6 682/2/6 688/2/6
f 683/2/6 684/2/6 689/2/6
f 689/2/6 684/2/6 690/2/6
f 691/3/6 692/3/6 695/3/6
f 695/3/6 692/3/6 696/3/6
f 692/2/6 693/2/6 697/2/6
f 696/3/6 692/3/6 697/3/6
f 694/3/6 695/3/6 698/3/6
f 695/1/6 696/1/6 699/1/6
f 698/3/6 695/3/6 699/3/6
f 696/2/6 697/2/6 700/2/6
f 699/1/6 696/1/6 700/1/6
f 697/2/6 693/2/6 701/2/6
f 700/2/6 697/2/6 701/2/6
f 699/3/6 700/3/6 702/3/6
f 700/3/6 701/3/6 702/3/6
f 701/2/6 693/2/6 703/2/6
f 702/3/6 701/3/6 703/3/6
f 703/2/6 693/2/6 704/2/6
f 705/2/6 706/2/6 710/2/6
f 709/2/6 710/2/6 711/2/6
f 710/2/6 706/2/6 712/2/6
f 711/2/6 710/2/6 712/2/6
f 712/2/6 706/2/6 713/2/6
f 713/2/6 706/2/6 714/2/6
f 707/2/6 708/2/6 715/2/6
f 715/2/6 708/2/6 716/2/6
